<?xml version='1.0' encoding='UTF-8'?>
<svg width="65mm" height="65mm" version="1.1" viewBox="0 0 65 65" xmlns="http://www.w3.org/2000/svg"><path d="M4,4H5V5H4zM5,4H6V5H5zM6,4H7V5H6zM7,4H8V5H7zM8,4H9V5H8zM9,4H10V5H9zM10,4H11V5H10zM12,4H13V5H12zM13,4H14V5H13zM14,4H15V5H14zM15,4H16V5H15zM16,4H17V5H16zM17,4H18V5H17zM18,4H19V5H18zM19,4H20V5H19zM22,4H23V5H22zM23,4H24V5H23zM24,4H25V5H24zM25,4H26V5H25zM26,4H27V5H26zM27,4H28V5H27zM33,4H34V5H33zM34,4H35V5H34zM37,4H38V5H37zM38,4H39V5H38zM39,4H40V5H39zM40,4H41V5H40zM41,4H42V5H41zM43,4H44V5H43zM44,4H45V5H44zM46,4H47V5H46zM47,4H48V5H47zM49,4H50V5H49zM50,4H51V5H50zM51,4H52V5H51zM54,4H55V5H54zM55,4H56V5H55zM56,4H57V5H56zM57,4H58V5H57zM58,4H59V5H58zM59,4H60V5H59zM60,4H61V5H60zM4,5H5V6H4zM10,5H11V6H10zM12,5H13V6H12zM15,5H16V6H15zM17,5H18V6H17zM18,5H19V6H18zM19,5H20V6H19zM20,5H21V6H20zM22,5H23V6H22zM25,5H26V6H25zM27,5H28V6H27zM30,5H31V6H30zM31,5H32V6H31zM33,5H34V6H33zM36,5H37V6H36zM37,5H38V6H37zM38,5H39V6H38zM43,5H44V6H43zM47,5H48V6H47zM48,5H49V6H48zM51,5H52V6H51zM54,5H55V6H54zM60,5H61V6H60zM4,6H5V7H4zM6,6H7V7H6zM7,6H8V7H7zM8,6H9V7H8zM10,6H11V7H10zM12,6H13V7H12zM14,6H15V7H14zM16,6H17V7H16zM18,6H19V7H18zM19,6H20V7H19zM21,6H22V7H21zM22,6H23V7H22zM23,6H24V7H23zM24,6H25V7H24zM28,6H29V7H28zM30,6H31V7H30zM31,6H32V7H31zM33,6H34V7H33zM34,6H35V7H34zM35,6H36V7H35zM36,6H37V7H36zM37,6H38V7H37zM44,6H45V7H44zM48,6H49V7H48zM49,6H50V7H49zM50,6H51V7H50zM51,6H52V7H51zM54,6H55V7H54zM56,6H57V7H56zM57,6H58V7H57zM58,6H59V7H58zM60,6H61V7H60zM4,7H5V8H4zM6,7H7V8H6zM7,7H8V8H7zM8,7H9V8H8zM10,7H11V8H10zM13,7H14V8H13zM15,7H16V8H15zM21,7H22V8H21zM22,7H23V8H22zM23,7H24V8H23zM24,7H25V8H24zM26,7H27V8H26zM27,7H28V8H27zM28,7H29V8H28zM29,7H30V8H29zM31,7H32V8H31zM34,7H35V8H34zM37,7H38V8H37zM38,7H39V8H38zM39,7H40V8H39zM40,7H41V8H40zM41,7H42V8H41zM43,7H44V8H43zM45,7H46V8H45zM46,7H47V8H46zM47,7H48V8H47zM51,7H52V8H51zM54,7H55V8H54zM56,7H57V8H56zM57,7H58V8H57zM58,7H59V8H58zM60,7H61V8H60zM4,8H5V9H4zM6,8H7V9H6zM7,8H8V9H7zM8,8H9V9H8zM10,8H11V9H10zM14,8H15V9H14zM15,8H16V9H15zM26,8H27V9H26zM27,8H28V9H27zM28,8H29V9H28zM29,8H30V9H29zM30,8H31V9H30zM31,8H32V9H31zM32,8H33V9H32zM33,8H34V9H33zM34,8H35V9H34zM35,8H36V9H35zM36,8H37V9H36zM43,8H44V9H43zM44,8H45V9H44zM45,8H46V9H45zM46,8H47V9H46zM47,8H48V9H47zM48,8H49V9H48zM51,8H52V9H51zM54,8H55V9H54zM56,8H57V9H56zM57,8H58V9H57zM58,8H59V9H58zM60,8H61V9H60zM4,9H5V10H4zM10,9H11V10H10zM12,9H13V10H12zM13,9H14V10H13zM14,9H15V10H14zM15,9H16V10H15zM19,9H20V10H19zM21,9H22V10H21zM22,9H23V10H22zM24,9H25V10H24zM25,9H26V10H25zM26,9H27V10H26zM27,9H28V10H27zM30,9H31V10H30zM34,9H35V10H34zM35,9H36V10H35zM37,9H38V10H37zM38,9H39V10H38zM40,9H41V10H40zM41,9H42V10H41zM45,9H46V10H45zM47,9H48V10H47zM48,9H49V10H48zM50,9H51V10H50zM54,9H55V10H54zM60,9H61V10H60zM4,10H5V11H4zM5,10H6V11H5zM6,10H7V11H6zM7,10H8V11H7zM8,10H9V11H8zM9,10H10V11H9zM10,10H11V11H10zM12,10H13V11H12zM14,10H15V11H14zM16,10H17V11H16zM18,10H19V11H18zM20,10H21V11H20zM22,10H23V11H22zM24,10H25V11H24zM26,10H27V11H26zM28,10H29V11H28zM30,10H31V11H30zM32,10H33V11H32zM34,10H35V11H34zM36,10H37V11H36zM38,10H39V11H38zM40,10H41V11H40zM42,10H43V11H42zM44,10H45V11H44zM46,10H47V11H46zM48,10H49V11H48zM50,10H51V11H50zM52,10H53V11H52zM54,10H55V11H54zM55,10H56V11H55zM56,10H57V11H56zM57,10H58V11H57zM58,10H59V11H58zM59,10H60V11H59zM60,10H61V11H60zM12,11H13V12H12zM17,11H18V12H17zM18,11H19V12H18zM19,11H20V12H19zM20,11H21V12H20zM22,11H23V12H22zM30,11H31V12H30zM34,11H35V12H34zM37,11H38V12H37zM43,11H44V12H43zM47,11H48V12H47zM50,11H51V12H50zM51,11H52V12H51zM52,11H53V12H52zM6,12H7V13H6zM7,12H8V13H7zM8,12H9V13H8zM10,12H11V13H10zM12,12H13V13H12zM13,12H14V13H13zM14,12H15V13H14zM15,12H16V13H15zM17,12H18V13H17zM18,12H19V13H18zM19,12H20V13H19zM20,12H21V13H20zM22,12H23V13H22zM23,12H24V13H23zM24,12H25V13H24zM26,12H27V13H26zM27,12H28V13H27zM28,12H29V13H28zM29,12H30V13H29zM30,12H31V13H30zM31,12H32V13H31zM32,12H33V13H32zM33,12H34V13H33zM34,12H35V13H34zM37,12H38V13H37zM41,12H42V13H41zM49,12H50V13H49zM50,12H51V13H50zM53,12H54V13H53zM54,12H55V13H54zM55,12H56V13H55zM58,12H59V13H58zM59,12H60V13H59zM60,12H61V13H60zM11,13H12V14H11zM14,13H15V14H14zM15,13H16V14H15zM16,13H17V14H16zM18,13H19V14H18zM21,13H22V14H21zM22,13H23V14H22zM25,13H26V14H25zM30,13H31V14H30zM33,13H34V14H33zM35,13H36V14H35zM36,13H37V14H36zM38,13H39V14H38zM39,13H40V14H39zM40,13H41V14H40zM43,13H44V14H43zM44,13H45V14H44zM45,13H46V14H45zM46,13H47V14H46zM47,13H48V14H47zM50,13H51V14H50zM51,13H52V14H51zM52,13H53V14H52zM53,13H54V14H53zM56,13H57V14H56zM57,13H58V14H57zM58,13H59V14H58zM4,14H5V15H4zM5,14H6V15H5zM6,14H7V15H6zM7,14H8V15H7zM10,14H11V15H10zM11,14H12V15H11zM12,14H13V15H12zM18,14H19V15H18zM23,14H24V15H23zM24,14H25V15H24zM25,14H26V15H25zM26,14H27V15H26zM27,14H28V15H27zM28,14H29V15H28zM30,14H31V15H30zM31,14H32V15H31zM32,14H33V15H32zM34,14H35V15H34zM36,14H37V15H36zM37,14H38V15H37zM41,14H42V15H41zM43,14H44V15H43zM44,14H45V15H44zM49,14H50V15H49zM51,14H52V15H51zM54,14H55V15H54zM57,14H58V15H57zM58,14H59V15H58zM59,14H60V15H59zM4,15H5V16H4zM5,15H6V16H5zM6,15H7V16H6zM9,15H10V16H9zM11,15H12V16H11zM12,15H13V16H12zM13,15H14V16H13zM14,15H15V16H14zM17,15H18V16H17zM18,15H19V16H18zM19,15H20V16H19zM21,15H22V16H21zM22,15H23V16H22zM23,15H24V16H23zM24,15H25V16H24zM25,15H26V16H25zM26,15H27V16H26zM28,15H29V16H28zM30,15H31V16H30zM32,15H33V16H32zM35,15H36V16H35zM36,15H37V16H36zM38,15H39V16H38zM39,15H40V16H39zM45,15H46V16H45zM46,15H47V16H46zM47,15H48V16H47zM48,15H49V16H48zM49,15H50V16H49zM51,15H52V16H51zM53,15H54V16H53zM54,15H55V16H54zM56,15H57V16H56zM57,15H58V16H57zM58,15H59V16H58zM59,15H60V16H59zM60,15H61V16H60zM4,16H5V17H4zM7,16H8V17H7zM9,16H10V17H9zM10,16H11V17H10zM11,16H12V17H11zM15,16H16V17H15zM16,16H17V17H16zM17,16H18V17H17zM19,16H20V17H19zM21,16H22V17H21zM26,16H27V17H26zM27,16H28V17H27zM28,16H29V17H28zM29,16H30V17H29zM31,16H32V17H31zM32,16H33V17H32zM34,16H35V17H34zM39,16H40V17H39zM41,16H42V17H41zM42,16H43V17H42zM45,16H46V17H45zM47,16H48V17H47zM50,16H51V17H50zM51,16H52V17H51zM53,16H54V17H53zM54,16H55V17H54zM57,16H58V17H57zM58,16H59V17H58zM4,17H5V18H4zM11,17H12V18H11zM12,17H13V18H12zM13,17H14V18H13zM14,17H15V18H14zM15,17H16V18H15zM17,17H18V18H17zM19,17H20V18H19zM20,17H21V18H20zM22,17H23V18H22zM26,17H27V18H26zM29,17H30V18H29zM32,17H33V18H32zM33,17H34V18H33zM35,17H36V18H35zM36,17H37V18H36zM37,17H38V18H37zM38,17H39V18H38zM40,17H41V18H40zM43,17H44V18H43zM46,17H47V18H46zM47,17H48V18H47zM48,17H49V18H48zM49,17H50V18H49zM52,17H53V18H52zM53,17H54V18H53zM55,17H56V18H55zM58,17H59V18H58zM60,17H61V18H60zM4,18H5V19H4zM10,18H11V19H10zM11,18H12V19H11zM13,18H14V19H13zM15,18H16V19H15zM18,18H19V19H18zM21,18H22V19H21zM23,18H24V19H23zM24,18H25V19H24zM25,18H26V19H25zM27,18H28V19H27zM29,18H30V19H29zM31,18H32V19H31zM35,18H36V19H35zM36,18H37V19H36zM37,18H38V19H37zM38,18H39V19H38zM40,18H41V19H40zM42,18H43V19H42zM44,18H45V19H44zM47,18H48V19H47zM48,18H49V19H48zM50,18H51V19H50zM51,18H52V19H51zM54,18H55V19H54zM57,18H58V19H57zM58,18H59V19H58zM4,19H5V20H4zM6,19H7V20H6zM9,19H10V20H9zM13,19H14V20H13zM17,19H18V20H17zM19,19H20V20H19zM20,19H21V20H20zM22,19H23V20H22zM23,19H24V20H23zM26,19H27V20H26zM28,19H29V20H28zM32,19H33V20H32zM34,19H35V20H34zM35,19H36V20H35zM37,19H38V20H37zM39,19H40V20H39zM44,19H45V20H44zM45,19H46V20H45zM50,19H51V20H50zM52,19H53V20H52zM54,19H55V20H54zM57,19H58V20H57zM58,19H59V20H58zM59,19H60V20H59zM60,19H61V20H60zM5,20H6V21H5zM8,20H9V21H8zM9,20H10V21H9zM10,20H11V21H10zM11,20H12V21H11zM18,20H19V21H18zM20,20H21V21H20zM21,20H22V21H21zM25,20H26V21H25zM29,20H30V21H29zM31,20H32V21H31zM32,20H33V21H32zM34,20H35V21H34zM37,20H38V21H37zM39,20H40V21H39zM42,20H43V21H42zM45,20H46V21H45zM47,20H48V21H47zM49,20H50V21H49zM50,20H51V21H50zM52,20H53V21H52zM53,20H54V21H53zM55,20H56V21H55zM57,20H58V21H57zM58,20H59V21H58zM4,21H5V22H4zM6,21H7V22H6zM7,21H8V22H7zM8,21H9V22H8zM12,21H13V22H12zM13,21H14V22H13zM15,21H16V22H15zM16,21H17V22H16zM17,21H18V22H17zM20,21H21V22H20zM23,21H24V22H23zM27,21H28V22H27zM32,21H33V22H32zM34,21H35V22H34zM35,21H36V22H35zM39,21H40V22H39zM41,21H42V22H41zM44,21H45V22H44zM46,21H47V22H46zM51,21H52V22H51zM52,21H53V22H52zM53,21H54V22H53zM60,21H61V22H60zM5,22H6V23H5zM10,22H11V23H10zM12,22H13V23H12zM15,22H16V23H15zM20,22H21V23H20zM21,22H22V23H21zM25,22H26V23H25zM26,22H27V23H26zM27,22H28V23H27zM28,22H29V23H28zM29,22H30V23H29zM31,22H32V23H31zM32,22H33V23H32zM35,22H36V23H35zM37,22H38V23H37zM38,22H39V23H38zM39,22H40V23H39zM40,22H41V23H40zM42,22H43V23H42zM44,22H45V23H44zM45,22H46V23H45zM48,22H49V23H48zM49,22H50V23H49zM50,22H51V23H50zM51,22H52V23H51zM52,22H53V23H52zM55,22H56V23H55zM59,22H60V23H59zM5,23H6V24H5zM9,23H10V24H9zM11,23H12V24H11zM12,23H13V24H12zM18,23H19V24H18zM19,23H20V24H19zM20,23H21V24H20zM24,23H25V24H24zM27,23H28V24H27zM28,23H29V24H28zM30,23H31V24H30zM31,23H32V24H31zM32,23H33V24H32zM33,23H34V24H33zM34,23H35V24H34zM36,23H37V24H36zM38,23H39V24H38zM44,23H45V24H44zM46,23H47V24H46zM49,23H50V24H49zM52,23H53V24H52zM56,23H57V24H56zM57,23H58V24H57zM58,23H59V24H58zM59,23H60V24H59zM60,23H61V24H60zM4,24H5V25H4zM6,24H7V25H6zM9,24H10V25H9zM10,24H11V25H10zM11,24H12V25H11zM13,24H14V25H13zM14,24H15V25H14zM15,24H16V25H15zM17,24H18V25H17zM21,24H22V25H21zM22,24H23V25H22zM24,24H25V25H24zM25,24H26V25H25zM26,24H27V25H26zM30,24H31V25H30zM31,24H32V25H31zM32,24H33V25H32zM33,24H34V25H33zM35,24H36V25H35zM36,24H37V25H36zM37,24H38V25H37zM40,24H41V25H40zM41,24H42V25H41zM42,24H43V25H42zM47,24H48V25H47zM51,24H52V25H51zM54,24H55V25H54zM58,24H59V25H58zM59,24H60V25H59zM4,25H5V26H4zM7,25H8V26H7zM8,25H9V26H8zM11,25H12V26H11zM12,25H13V26H12zM13,25H14V26H13zM15,25H16V26H15zM16,25H17V26H16zM17,25H18V26H17zM19,25H20V26H19zM20,25H21V26H20zM22,25H23V26H22zM24,25H25V26H24zM26,25H27V26H26zM27,25H28V26H27zM28,25H29V26H28zM29,25H30V26H29zM30,25H31V26H30zM31,25H32V26H31zM34,25H35V26H34zM35,25H36V26H35zM39,25H40V26H39zM40,25H41V26H40zM41,25H42V26H41zM44,25H45V26H44zM45,25H46V26H45zM46,25H47V26H46zM47,25H48V26H47zM52,25H53V26H52zM53,25H54V26H53zM56,25H57V26H56zM58,25H59V26H58zM60,25H61V26H60zM4,26H5V27H4zM6,26H7V27H6zM8,26H9V27H8zM9,26H10V27H9zM10,26H11V27H10zM11,26H12V27H11zM12,26H13V27H12zM13,26H14V27H13zM17,26H18V27H17zM18,26H19V27H18zM24,26H25V27H24zM25,26H26V27H25zM27,26H28V27H27zM29,26H30V27H29zM31,26H32V27H31zM32,26H33V27H32zM33,26H34V27H33zM35,26H36V27H35zM36,26H37V27H36zM38,26H39V27H38zM42,26H43V27H42zM43,26H44V27H43zM48,26H49V27H48zM49,26H50V27H49zM51,26H52V27H51zM56,26H57V27H56zM57,26H58V27H57zM58,26H59V27H58zM59,26H60V27H59zM4,27H5V28H4zM5,27H6V28H5zM7,27H8V28H7zM11,27H12V28H11zM12,27H13V28H12zM16,27H17V28H16zM17,27H18V28H17zM18,27H19V28H18zM20,27H21V28H20zM21,27H22V28H21zM22,27H23V28H22zM23,27H24V28H23zM24,27H25V28H24zM25,27H26V28H25zM26,27H27V28H26zM27,27H28V28H27zM29,27H30V28H29zM31,27H32V28H31zM33,27H34V28H33zM34,27H35V28H34zM36,27H37V28H36zM38,27H39V28H38zM40,27H41V28H40zM42,27H43V28H42zM43,27H44V28H43zM45,27H46V28H45zM47,27H48V28H47zM50,27H51V28H50zM51,27H52V28H51zM53,27H54V28H53zM58,27H59V28H58zM10,28H11V29H10zM13,28H14V29H13zM14,28H15V29H14zM15,28H16V29H15zM18,28H19V29H18zM19,28H20V29H19zM20,28H21V29H20zM21,28H22V29H21zM22,28H23V29H22zM23,28H24V29H23zM24,28H25V29H24zM26,28H27V29H26zM28,28H29V29H28zM29,28H30V29H29zM36,28H37V29H36zM37,28H38V29H37zM38,28H39V29H38zM39,28H40V29H39zM44,28H45V29H44zM47,28H48V29H47zM49,28H50V29H49zM50,28H51V29H50zM54,28H55V29H54zM57,28H58V29H57zM58,28H59V29H58zM5,29H6V30H5zM6,29H7V30H6zM8,29H9V30H8zM13,29H14V30H13zM15,29H16V30H15zM16,29H17V30H16zM17,29H18V30H17zM18,29H19V30H18zM20,29H21V30H20zM23,29H24V30H23zM25,29H26V30H25zM28,29H29V30H28zM29,29H30V30H29zM30,29H31V30H30zM31,29H32V30H31zM32,29H33V30H32zM33,29H34V30H33zM34,29H35V30H34zM35,29H36V30H35zM37,29H38V30H37zM38,29H39V30H38zM39,29H40V30H39zM41,29H42V30H41zM43,29H44V30H43zM44,29H45V30H44zM45,29H46V30H45zM47,29H48V30H47zM48,29H49V30H48zM52,29H53V30H52zM53,29H54V30H53zM55,29H56V30H55zM58,29H59V30H58zM4,30H5V31H4zM7,30H8V31H7zM8,30H9V31H8zM9,30H10V31H9zM10,30H11V31H10zM11,30H12V31H11zM12,30H13V31H12zM13,30H14V31H13zM16,30H17V31H16zM19,30H20V31H19zM21,30H22V31H21zM23,30H24V31H23zM24,30H25V31H24zM27,30H28V31H27zM30,30H31V31H30zM31,30H32V31H31zM32,30H33V31H32zM33,30H34V31H33zM34,30H35V31H34zM35,30H36V31H35zM37,30H38V31H37zM40,30H41V31H40zM42,30H43V31H42zM44,30H45V31H44zM46,30H47V31H46zM47,30H48V31H47zM50,30H51V31H50zM51,30H52V31H51zM52,30H53V31H52zM53,30H54V31H53zM54,30H55V31H54zM55,30H56V31H55zM56,30H57V31H56zM57,30H58V31H57zM59,30H60V31H59zM60,30H61V31H60zM4,31H5V32H4zM5,31H6V32H5zM7,31H8V32H7zM8,31H9V32H8zM12,31H13V32H12zM13,31H14V32H13zM16,31H17V32H16zM17,31H18V32H17zM20,31H21V32H20zM22,31H23V32H22zM23,31H24V32H23zM25,31H26V32H25zM27,31H28V32H27zM30,31H31V32H30zM34,31H35V32H34zM35,31H36V32H35zM36,31H37V32H36zM37,31H38V32H37zM38,31H39V32H38zM39,31H40V32H39zM42,31H43V32H42zM43,31H44V32H43zM45,31H46V32H45zM46,31H47V32H46zM49,31H50V32H49zM52,31H53V32H52zM56,31H57V32H56zM57,31H58V32H57zM58,31H59V32H58zM60,31H61V32H60zM6,32H7V33H6zM8,32H9V33H8zM10,32H11V33H10zM12,32H13V33H12zM13,32H14V33H13zM15,32H16V33H15zM16,32H17V33H16zM18,32H19V33H18zM23,32H24V33H23zM25,32H26V33H25zM27,32H28V33H27zM30,32H31V33H30zM32,32H33V33H32zM34,32H35V33H34zM38,32H39V33H38zM39,32H40V33H39zM40,32H41V33H40zM41,32H42V33H41zM44,32H45V33H44zM46,32H47V33H46zM47,32H48V33H47zM51,32H52V33H51zM52,32H53V33H52zM54,32H55V33H54zM56,32H57V33H56zM59,32H60V33H59zM60,32H61V33H60zM4,33H5V34H4zM8,33H9V34H8zM12,33H13V34H12zM16,33H17V34H16zM17,33H18V34H17zM18,33H19V34H18zM19,33H20V34H19zM20,33H21V34H20zM21,33H22V34H21zM22,33H23V34H22zM23,33H24V34H23zM24,33H25V34H24zM25,33H26V34H25zM30,33H31V34H30zM34,33H35V34H34zM35,33H36V34H35zM36,33H37V34H36zM38,33H39V34H38zM41,33H42V34H41zM43,33H44V34H43zM44,33H45V34H44zM45,33H46V34H45zM46,33H47V34H46zM47,33H48V34H47zM52,33H53V34H52zM56,33H57V34H56zM57,33H58V34H57zM59,33H60V34H59zM60,33H61V34H60zM4,34H5V35H4zM8,34H9V35H8zM9,34H10V35H9zM10,34H11V35H10zM11,34H12V35H11zM12,34H13V35H12zM15,34H16V35H15zM16,34H17V35H16zM17,34H18V35H17zM18,34H19V35H18zM21,34H22V35H21zM23,34H24V35H23zM24,34H25V35H24zM25,34H26V35H25zM26,34H27V35H26zM28,34H29V35H28zM30,34H31V35H30zM31,34H32V35H31zM32,34H33V35H32zM33,34H34V35H33zM34,34H35V35H34zM38,34H39V35H38zM39,34H40V35H39zM42,34H43V35H42zM44,34H45V35H44zM50,34H51V35H50zM51,34H52V35H51zM52,34H53V35H52zM53,34H54V35H53zM54,34H55V35H54zM55,34H56V35H55zM56,34H57V35H56zM57,34H58V35H57zM59,34H60V35H59zM6,35H7V36H6zM11,35H12V36H11zM12,35H13V36H12zM15,35H16V36H15zM20,35H21V36H20zM21,35H22V36H21zM23,35H24V36H23zM24,35H25V36H24zM26,35H27V36H26zM27,35H28V36H27zM32,35H33V36H32zM37,35H38V36H37zM38,35H39V36H38zM39,35H40V36H39zM41,35H42V36H41zM42,35H43V36H42zM44,35H45V36H44zM45,35H46V36H45zM48,35H49V36H48zM49,35H50V36H49zM51,35H52V36H51zM54,35H55V36H54zM57,35H58V36H57zM58,35H59V36H58zM59,35H60V36H59zM5,36H6V37H5zM6,36H7V37H6zM10,36H11V37H10zM13,36H14V37H13zM14,36H15V37H14zM17,36H18V37H17zM18,36H19V37H18zM19,36H20V37H19zM20,36H21V37H20zM21,36H22V37H21zM24,36H25V37H24zM25,36H26V37H25zM26,36H27V37H26zM29,36H30V37H29zM31,36H32V37H31zM33,36H34V37H33zM34,36H35V37H34zM35,36H36V37H35zM37,36H38V37H37zM41,36H42V37H41zM43,36H44V37H43zM45,36H46V37H45zM47,36H48V37H47zM52,36H53V37H52zM53,36H54V37H53zM55,36H56V37H55zM59,36H60V37H59zM60,36H61V37H60zM7,37H8V38H7zM11,37H12V38H11zM12,37H13V38H12zM13,37H14V38H13zM14,37H15V38H14zM16,37H17V38H16zM20,37H21V38H20zM25,37H26V38H25zM27,37H28V38H27zM31,37H32V38H31zM33,37H34V38H33zM34,37H35V38H34zM35,37H36V38H35zM36,37H37V38H36zM40,37H41V38H40zM41,37H42V38H41zM45,37H46V38H45zM46,37H47V38H46zM47,37H48V38H47zM48,37H49V38H48zM52,37H53V38H52zM54,37H55V38H54zM57,37H58V38H57zM7,38H8V39H7zM10,38H11V39H10zM12,38H13V39H12zM15,38H16V39H15zM16,38H17V39H16zM18,38H19V39H18zM20,38H21V39H20zM21,38H22V39H21zM24,38H25V39H24zM28,38H29V39H28zM30,38H31V39H30zM32,38H33V39H32zM33,38H34V39H33zM37,38H38V39H37zM40,38H41V39H40zM42,38H43V39H42zM47,38H48V39H47zM48,38H49V39H48zM53,38H54V39H53zM55,38H56V39H55zM57,38H58V39H57zM59,38H60V39H59zM5,39H6V40H5zM6,39H7V40H6zM7,39H8V40H7zM8,39H9V40H8zM13,39H14V40H13zM18,39H19V40H18zM19,39H20V40H19zM20,39H21V40H20zM22,39H23V40H22zM23,39H24V40H23zM24,39H25V40H24zM26,39H27V40H26zM28,39H29V40H28zM37,39H38V40H37zM40,39H41V40H40zM41,39H42V40H41zM42,39H43V40H42zM46,39H47V40H46zM48,39H49V40H48zM52,39H53V40H52zM54,39H55V40H54zM57,39H58V40H57zM58,39H59V40H58zM59,39H60V40H59zM4,40H5V41H4zM6,40H7V41H6zM7,40H8V41H7zM8,40H9V41H8zM9,40H10V41H9zM10,40H11V41H10zM11,40H12V41H11zM12,40H13V41H12zM13,40H14V41H13zM14,40H15V41H14zM15,40H16V41H15zM17,40H18V41H17zM18,40H19V41H18zM19,40H20V41H19zM24,40H25V41H24zM25,40H26V41H25zM31,40H32V41H31zM35,40H36V41H35zM37,40H38V41H37zM38,40H39V41H38zM42,40H43V41H42zM46,40H47V41H46zM50,40H51V41H50zM53,40H54V41H53zM54,40H55V41H54zM60,40H61V41H60zM4,41H5V42H4zM9,41H10V42H9zM11,41H12V42H11zM12,41H13V42H12zM16,41H17V42H16zM17,41H18V42H17zM18,41H19V42H18zM19,41H20V42H19zM20,41H21V42H20zM21,41H22V42H21zM22,41H23V42H22zM23,41H24V42H23zM26,41H27V42H26zM27,41H28V42H27zM30,41H31V42H30zM32,41H33V42H32zM33,41H34V42H33zM35,41H36V42H35zM36,41H37V42H36zM40,41H41V42H40zM41,41H42V42H41zM42,41H43V42H42zM43,41H44V42H43zM45,41H46V42H45zM46,41H47V42H46zM47,41H48V42H47zM48,41H49V42H48zM52,41H53V42H52zM54,41H55V42H54zM59,41H60V42H59zM60,41H61V42H60zM4,42H5V43H4zM6,42H7V43H6zM10,42H11V43H10zM13,42H14V43H13zM14,42H15V43H14zM15,42H16V43H15zM17,42H18V43H17zM19,42H20V43H19zM23,42H24V43H23zM24,42H25V43H24zM26,42H27V43H26zM30,42H31V43H30zM31,42H32V43H31zM32,42H33V43H32zM33,42H34V43H33zM35,42H36V43H35zM36,42H37V43H36zM37,42H38V43H37zM43,42H44V43H43zM44,42H45V43H44zM45,42H46V43H45zM46,42H47V43H46zM47,42H48V43H47zM48,42H49V43H48zM49,42H50V43H49zM50,42H51V43H50zM52,42H53V43H52zM53,42H54V43H53zM54,42H55V43H54zM55,42H56V43H55zM57,42H58V43H57zM4,43H5V44H4zM5,43H6V44H5zM6,43H7V44H6zM7,43H8V44H7zM9,43H10V44H9zM11,43H12V44H11zM12,43H13V44H12zM18,43H19V44H18zM19,43H20V44H19zM21,43H22V44H21zM26,43H27V44H26zM27,43H28V44H27zM31,43H32V44H31zM32,43H33V44H32zM35,43H36V44H35zM36,43H37V44H36zM37,43H38V44H37zM39,43H40V44H39zM40,43H41V44H40zM41,43H42V44H41zM42,43H43V44H42zM44,43H45V44H44zM45,43H46V44H45zM46,43H47V44H46zM49,43H50V44H49zM51,43H52V44H51zM55,43H56V44H55zM58,43H59V44H58zM59,43H60V44H59zM4,44H5V45H4zM6,44H7V45H6zM10,44H11V45H10zM11,44H12V45H11zM12,44H13V45H12zM15,44H16V45H15zM16,44H17V45H16zM26,44H27V45H26zM27,44H28V45H27zM29,44H30V45H29zM30,44H31V45H30zM32,44H33V45H32zM35,44H36V45H35zM39,44H40V45H39zM42,44H43V45H42zM46,44H47V45H46zM47,44H48V45H47zM48,44H49V45H48zM53,44H54V45H53zM55,44H56V45H55zM56,44H57V45H56zM57,44H58V45H57zM59,44H60V45H59zM60,44H61V45H60zM4,45H5V46H4zM5,45H6V46H5zM7,45H8V46H7zM11,45H12V46H11zM13,45H14V46H13zM14,45H15V46H14zM15,45H16V46H15zM17,45H18V46H17zM19,45H20V46H19zM20,45H21V46H20zM21,45H22V46H21zM23,45H24V46H23zM24,45H25V46H24zM28,45H29V46H28zM29,45H30V46H29zM30,45H31V46H30zM31,45H32V46H31zM34,45H35V46H34zM35,45H36V46H35zM36,45H37V46H36zM39,45H40V46H39zM41,45H42V46H41zM42,45H43V46H42zM45,45H46V46H45zM46,45H47V46H46zM48,45H49V46H48zM49,45H50V46H49zM52,45H53V46H52zM55,45H56V46H55zM58,45H59V46H58zM60,45H61V46H60zM5,46H6V47H5zM7,46H8V47H7zM8,46H9V47H8zM10,46H11V47H10zM11,46H12V47H11zM14,46H15V47H14zM15,46H16V47H15zM16,46H17V47H16zM18,46H19V47H18zM20,46H21V47H20zM22,46H23V47H22zM23,46H24V47H23zM25,46H26V47H25zM26,46H27V47H26zM27,46H28V47H27zM28,46H29V47H28zM31,46H32V47H31zM35,46H36V47H35zM40,46H41V47H40zM43,46H44V47H43zM46,46H47V47H46zM47,46H48V47H47zM48,46H49V47H48zM51,46H52V47H51zM53,46H54V47H53zM55,46H56V47H55zM58,46H59V47H58zM59,46H60V47H59zM4,47H5V48H4zM5,47H6V48H5zM6,47H7V48H6zM12,47H13V48H12zM16,47H17V48H16zM17,47H18V48H17zM23,47H24V48H23zM24,47H25V48H24zM25,47H26V48H25zM30,47H31V48H30zM35,47H36V48H35zM36,47H37V48H36zM37,47H38V48H37zM38,47H39V48H38zM43,47H44V48H43zM45,47H46V48H45zM48,47H49V48H48zM49,47H50V48H49zM50,47H51V48H50zM53,47H54V48H53zM54,47H55V48H54zM57,47H58V48H57zM58,47H59V48H58zM59,47H60V48H59zM5,48H6V49H5zM7,48H8V49H7zM8,48H9V49H8zM9,48H10V49H9zM10,48H11V49H10zM13,48H14V49H13zM14,48H15V49H14zM15,48H16V49H15zM20,48H21V49H20zM21,48H22V49H21zM22,48H23V49H22zM23,48H24V49H23zM24,48H25V49H24zM26,48H27V49H26zM28,48H29V49H28zM29,48H30V49H29zM30,48H31V49H30zM32,48H33V49H32zM33,48H34V49H33zM34,48H35V49H34zM39,48H40V49H39zM40,48H41V49H40zM41,48H42V49H41zM45,48H46V49H45zM46,48H47V49H46zM47,48H48V49H47zM49,48H50V49H49zM50,48H51V49H50zM53,48H54V49H53zM54,48H55V49H54zM55,48H56V49H55zM56,48H57V49H56zM59,48H60V49H59zM6,49H7V50H6zM9,49H10V50H9zM11,49H12V50H11zM13,49H14V50H13zM19,49H20V50H19zM21,49H22V50H21zM22,49H23V50H22zM23,49H24V50H23zM26,49H27V50H26zM27,49H28V50H27zM30,49H31V50H30zM31,49H32V50H31zM38,49H39V50H38zM39,49H40V50H39zM40,49H41V50H40zM45,49H46V50H45zM46,49H47V50H46zM48,49H49V50H48zM49,49H50V50H49zM59,49H60V50H59zM60,49H61V50H60zM4,50H5V51H4zM6,50H7V51H6zM9,50H10V51H9zM10,50H11V51H10zM12,50H13V51H12zM13,50H14V51H13zM17,50H18V51H17zM18,50H19V51H18zM21,50H22V51H21zM23,50H24V51H23zM24,50H25V51H24zM27,50H28V51H27zM28,50H29V51H28zM29,50H30V51H29zM31,50H32V51H31zM32,50H33V51H32zM36,50H37V51H36zM38,50H39V51H38zM41,50H42V51H41zM43,50H44V51H43zM46,50H47V51H46zM47,50H48V51H47zM49,50H50V51H49zM50,50H51V51H50zM52,50H53V51H52zM53,50H54V51H53zM56,50H57V51H56zM59,50H60V51H59zM4,51H5V52H4zM5,51H6V52H5zM6,51H7V52H6zM7,51H8V52H7zM8,51H9V52H8zM11,51H12V52H11zM13,51H14V52H13zM14,51H15V52H14zM15,51H16V52H15zM16,51H17V52H16zM18,51H19V52H18zM19,51H20V52H19zM20,51H21V52H20zM30,51H31V52H30zM33,51H34V52H33zM34,51H35V52H34zM38,51H39V52H38zM39,51H40V52H39zM43,51H44V52H43zM44,51H45V52H44zM45,51H46V52H45zM46,51H47V52H46zM49,51H50V52H49zM51,51H52V52H51zM54,51H55V52H54zM56,51H57V52H56zM57,51H58V52H57zM58,51H59V52H58zM59,51H60V52H59zM10,52H11V53H10zM11,52H12V53H11zM13,52H14V53H13zM16,52H17V53H16zM18,52H19V53H18zM21,52H22V53H21zM22,52H23V53H22zM23,52H24V53H23zM25,52H26V53H25zM28,52H29V53H28zM30,52H31V53H30zM31,52H32V53H31zM32,52H33V53H32zM33,52H34V53H33zM34,52H35V53H34zM35,52H36V53H35zM36,52H37V53H36zM38,52H39V53H38zM40,52H41V53H40zM41,52H42V53H41zM45,52H46V53H45zM47,52H48V53H47zM50,52H51V53H50zM52,52H53V53H52zM53,52H54V53H53zM54,52H55V53H54zM55,52H56V53H55zM56,52H57V53H56zM59,52H60V53H59zM60,52H61V53H60zM12,53H13V54H12zM13,53H14V54H13zM14,53H15V54H14zM15,53H16V54H15zM16,53H17V54H16zM18,53H19V54H18zM21,53H22V54H21zM22,53H23V54H22zM23,53H24V54H23zM24,53H25V54H24zM25,53H26V54H25zM26,53H27V54H26zM27,53H28V54H27zM29,53H30V54H29zM30,53H31V54H30zM34,53H35V54H34zM35,53H36V54H35zM36,53H37V54H36zM37,53H38V54H37zM40,53H41V54H40zM43,53H44V54H43zM44,53H45V54H44zM45,53H46V54H45zM46,53H47V54H46zM47,53H48V54H47zM48,53H49V54H48zM52,53H53V54H52zM56,53H57V54H56zM58,53H59V54H58zM60,53H61V54H60zM4,54H5V55H4zM5,54H6V55H5zM6,54H7V55H6zM7,54H8V55H7zM8,54H9V55H8zM9,54H10V55H9zM10,54H11V55H10zM17,54H18V55H17zM19,54H20V55H19zM20,54H21V55H20zM24,54H25V55H24zM26,54H27V55H26zM29,54H30V55H29zM30,54H31V55H30zM32,54H33V55H32zM34,54H35V55H34zM35,54H36V55H35zM36,54H37V55H36zM37,54H38V55H37zM38,54H39V55H38zM40,54H41V55H40zM41,54H42V55H41zM46,54H47V55H46zM47,54H48V55H47zM49,54H50V55H49zM50,54H51V55H50zM52,54H53V55H52zM54,54H55V55H54zM56,54H57V55H56zM57,54H58V55H57zM58,54H59V55H58zM59,54H60V55H59zM4,55H5V56H4zM10,55H11V56H10zM15,55H16V56H15zM18,55H19V56H18zM21,55H22V56H21zM22,55H23V56H22zM24,55H25V56H24zM25,55H26V56H25zM26,55H27V56H26zM30,55H31V56H30zM34,55H35V56H34zM36,55H37V56H36zM38,55H39V56H38zM39,55H40V56H39zM41,55H42V56H41zM42,55H43V56H42zM43,55H44V56H43zM44,55H45V56H44zM45,55H46V56H45zM48,55H49V56H48zM51,55H52V56H51zM52,55H53V56H52zM56,55H57V56H56zM58,55H59V56H58zM60,55H61V56H60zM4,56H5V57H4zM6,56H7V57H6zM7,56H8V57H7zM8,56H9V57H8zM10,56H11V57H10zM12,56H13V57H12zM13,56H14V57H13zM18,56H19V57H18zM20,56H21V57H20zM21,56H22V57H21zM23,56H24V57H23zM25,56H26V57H25zM27,56H28V57H27zM29,56H30V57H29zM30,56H31V57H30zM31,56H32V57H31zM32,56H33V57H32zM33,56H34V57H33zM34,56H35V57H34zM35,56H36V57H35zM36,56H37V57H36zM38,56H39V57H38zM40,56H41V57H40zM41,56H42V57H41zM42,56H43V57H42zM45,56H46V57H45zM46,56H47V57H46zM47,56H48V57H47zM49,56H50V57H49zM50,56H51V57H50zM52,56H53V57H52zM53,56H54V57H53zM54,56H55V57H54zM55,56H56V57H55zM56,56H57V57H56zM59,56H60V57H59zM60,56H61V57H60zM4,57H5V58H4zM6,57H7V58H6zM7,57H8V58H7zM8,57H9V58H8zM10,57H11V58H10zM12,57H13V58H12zM18,57H19V58H18zM21,57H22V58H21zM22,57H23V58H22zM23,57H24V58H23zM25,57H26V58H25zM29,57H30V58H29zM30,57H31V58H30zM33,57H34V58H33zM34,57H35V58H34zM41,57H42V58H41zM42,57H43V58H42zM44,57H45V58H44zM46,57H47V58H46zM47,57H48V58H47zM52,57H53V58H52zM53,57H54V58H53zM56,57H57V58H56zM57,57H58V58H57zM4,58H5V59H4zM6,58H7V59H6zM7,58H8V59H7zM8,58H9V59H8zM10,58H11V59H10zM12,58H13V59H12zM13,58H14V59H13zM15,58H16V59H15zM17,58H18V59H17zM21,58H22V59H21zM22,58H23V59H22zM23,58H24V59H23zM24,58H25V59H24zM25,58H26V59H25zM26,58H27V59H26zM27,58H28V59H27zM28,58H29V59H28zM29,58H30V59H29zM30,58H31V59H30zM31,58H32V59H31zM33,58H34V59H33zM36,58H37V59H36zM40,58H41V59H40zM42,58H43V59H42zM44,58H45V59H44zM46,58H47V59H46zM48,58H49V59H48zM49,58H50V59H49zM51,58H52V59H51zM52,58H53V59H52zM53,58H54V59H53zM4,59H5V60H4zM10,59H11V60H10zM14,59H15V60H14zM15,59H16V60H15zM16,59H17V60H16zM17,59H18V60H17zM18,59H19V60H18zM21,59H22V60H21zM23,59H24V60H23zM24,59H25V60H24zM28,59H29V60H28zM30,59H31V60H30zM31,59H32V60H31zM33,59H34V60H33zM37,59H38V60H37zM38,59H39V60H38zM39,59H40V60H39zM46,59H47V60H46zM47,59H48V60H47zM48,59H49V60H48zM49,59H50V60H49zM50,59H51V60H50zM55,59H56V60H55zM57,59H58V60H57zM4,60H5V61H4zM5,60H6V61H5zM6,60H7V61H6zM7,60H8V61H7zM8,60H9V61H8zM9,60H10V61H9zM10,60H11V61H10zM14,60H15V61H14zM17,60H18V61H17zM19,60H20V61H19zM20,60H21V61H20zM23,60H24V61H23zM24,60H25V61H24zM26,60H27V61H26zM27,60H28V61H27zM29,60H30V61H29zM30,60H31V61H30zM31,60H32V61H31zM32,60H33V61H32zM36,60H37V61H36zM40,60H41V61H40zM42,60H43V61H42zM43,60H44V61H43zM45,60H46V61H45zM46,60H47V61H46zM47,60H48V61H47zM49,60H50V61H49zM52,60H53V61H52zM54,60H55V61H54zM55,60H56V61H55zM56,60H57V61H56zM58,60H59V61H58zM59,60H60V61H59z" id="qr-path" fill="#000000" fill-opacity="1" fill-rule="nonzero" stroke="none" /></svg>