<?xml version='1.0' encoding='UTF-8'?>
<svg width="65mm" height="65mm" version="1.1" viewBox="0 0 65 65" xmlns="http://www.w3.org/2000/svg"><path d="M4,4H5V5H4zM5,4H6V5H5zM6,4H7V5H6zM7,4H8V5H7zM8,4H9V5H8zM9,4H10V5H9zM10,4H11V5H10zM12,4H13V5H12zM13,4H14V5H13zM15,4H16V5H15zM16,4H17V5H16zM19,4H20V5H19zM20,4H21V5H20zM21,4H22V5H21zM22,4H23V5H22zM25,4H26V5H25zM29,4H30V5H29zM30,4H31V5H30zM32,4H33V5H32zM33,4H34V5H33zM36,4H37V5H36zM37,4H38V5H37zM40,4H41V5H40zM42,4H43V5H42zM45,4H46V5H45zM46,4H47V5H46zM48,4H49V5H48zM49,4H50V5H49zM50,4H51V5H50zM51,4H52V5H51zM54,4H55V5H54zM55,4H56V5H55zM56,4H57V5H56zM57,4H58V5H57zM58,4H59V5H58zM59,4H60V5H59zM60,4H61V5H60zM4,5H5V6H4zM10,5H11V6H10zM13,5H14V6H13zM15,5H16V6H15zM16,5H17V6H16zM20,5H21V6H20zM22,5H23V6H22zM25,5H26V6H25zM27,5H28V6H27zM30,5H31V6H30zM34,5H35V6H34zM36,5H37V6H36zM38,5H39V6H38zM41,5H42V6H41zM43,5H44V6H43zM44,5H45V6H44zM47,5H48V6H47zM48,5H49V6H48zM49,5H50V6H49zM51,5H52V6H51zM54,5H55V6H54zM60,5H61V6H60zM4,6H5V7H4zM6,6H7V7H6zM7,6H8V7H7zM8,6H9V7H8zM10,6H11V7H10zM12,6H13V7H12zM14,6H15V7H14zM15,6H16V7H15zM18,6H19V7H18zM19,6H20V7H19zM21,6H22V7H21zM22,6H23V7H22zM23,6H24V7H23zM25,6H26V7H25zM26,6H27V7H26zM28,6H29V7H28zM30,6H31V7H30zM31,6H32V7H31zM34,6H35V7H34zM35,6H36V7H35zM36,6H37V7H36zM37,6H38V7H37zM39,6H40V7H39zM40,6H41V7H40zM48,6H49V7H48zM49,6H50V7H49zM50,6H51V7H50zM51,6H52V7H51zM54,6H55V7H54zM56,6H57V7H56zM57,6H58V7H57zM58,6H59V7H58zM60,6H61V7H60zM4,7H5V8H4zM6,7H7V8H6zM7,7H8V8H7zM8,7H9V8H8zM10,7H11V8H10zM14,7H15V8H14zM15,7H16V8H15zM16,7H17V8H16zM17,7H18V8H17zM18,7H19V8H18zM19,7H20V8H19zM20,7H21V8H20zM21,7H22V8H21zM22,7H23V8H22zM24,7H25V8H24zM25,7H26V8H25zM27,7H28V8H27zM28,7H29V8H28zM29,7H30V8H29zM30,7H31V8H30zM32,7H33V8H32zM36,7H37V8H36zM39,7H40V8H39zM40,7H41V8H40zM41,7H42V8H41zM42,7H43V8H42zM43,7H44V8H43zM44,7H45V8H44zM45,7H46V8H45zM46,7H47V8H46zM47,7H48V8H47zM48,7H49V8H48zM49,7H50V8H49zM51,7H52V8H51zM54,7H55V8H54zM56,7H57V8H56zM57,7H58V8H57zM58,7H59V8H58zM60,7H61V8H60zM4,8H5V9H4zM6,8H7V9H6zM7,8H8V9H7zM8,8H9V9H8zM10,8H11V9H10zM12,8H13V9H12zM14,8H15V9H14zM16,8H17V9H16zM17,8H18V9H17zM18,8H19V9H18zM27,8H28V9H27zM28,8H29V9H28zM29,8H30V9H29zM30,8H31V9H30zM31,8H32V9H31zM32,8H33V9H32zM33,8H34V9H33zM34,8H35V9H34zM35,8H36V9H35zM36,8H37V9H36zM43,8H44V9H43zM45,8H46V9H45zM46,8H47V9H46zM47,8H48V9H47zM48,8H49V9H48zM51,8H52V9H51zM54,8H55V9H54zM56,8H57V9H56zM57,8H58V9H57zM58,8H59V9H58zM60,8H61V9H60zM4,9H5V10H4zM10,9H11V10H10zM14,9H15V10H14zM16,9H17V10H16zM17,9H18V10H17zM21,9H22V10H21zM22,9H23V10H22zM23,9H24V10H23zM26,9H27V10H26zM27,9H28V10H27zM30,9H31V10H30zM34,9H35V10H34zM35,9H36V10H35zM38,9H39V10H38zM41,9H42V10H41zM43,9H44V10H43zM45,9H46V10H45zM47,9H48V10H47zM48,9H49V10H48zM49,9H50V10H49zM50,9H51V10H50zM54,9H55V10H54zM60,9H61V10H60zM4,10H5V11H4zM5,10H6V11H5zM6,10H7V11H6zM7,10H8V11H7zM8,10H9V11H8zM9,10H10V11H9zM10,10H11V11H10zM12,10H13V11H12zM14,10H15V11H14zM16,10H17V11H16zM18,10H19V11H18zM20,10H21V11H20zM22,10H23V11H22zM24,10H25V11H24zM26,10H27V11H26zM28,10H29V11H28zM30,10H31V11H30zM32,10H33V11H32zM34,10H35V11H34zM36,10H37V11H36zM38,10H39V11H38zM40,10H41V11H40zM42,10H43V11H42zM44,10H45V11H44zM46,10H47V11H46zM48,10H49V11H48zM50,10H51V11H50zM52,10H53V11H52zM54,10H55V11H54zM55,10H56V11H55zM56,10H57V11H56zM57,10H58V11H57zM58,10H59V11H58zM59,10H60V11H59zM60,10H61V11H60zM12,11H13V12H12zM13,11H14V12H13zM16,11H17V12H16zM18,11H19V12H18zM20,11H21V12H20zM22,11H23V12H22zM26,11H27V12H26zM30,11H31V12H30zM34,11H35V12H34zM40,11H41V12H40zM44,11H45V12H44zM45,11H46V12H45zM46,11H47V12H46zM47,11H48V12H47zM49,11H50V12H49zM50,11H51V12H50zM51,11H52V12H51zM52,11H53V12H52zM9,12H10V13H9zM10,12H11V13H10zM13,12H14V13H13zM14,12H15V13H14zM15,12H16V13H15zM16,12H17V13H16zM17,12H18V13H17zM19,12H20V13H19zM20,12H21V13H20zM22,12H23V13H22zM24,12H25V13H24zM25,12H26V13H25zM27,12H28V13H27zM28,12H29V13H28zM29,12H30V13H29zM30,12H31V13H30zM31,12H32V13H31zM32,12H33V13H32zM33,12H34V13H33zM34,12H35V13H34zM37,12H38V13H37zM39,12H40V13H39zM41,12H42V13H41zM45,12H46V13H45zM49,12H50V13H49zM50,12H51V13H50zM51,12H52V13H51zM54,12H55V13H54zM56,12H57V13H56zM58,12H59V13H58zM60,12H61V13H60zM4,13H5V14H4zM7,13H8V14H7zM13,13H14V14H13zM15,13H16V14H15zM16,13H17V14H16zM19,13H20V14H19zM20,13H21V14H20zM21,13H22V14H21zM22,13H23V14H22zM31,13H32V14H31zM32,13H33V14H32zM35,13H36V14H35zM37,13H38V14H37zM40,13H41V14H40zM42,13H43V14H42zM43,13H44V14H43zM44,13H45V14H44zM45,13H46V14H45zM46,13H47V14H46zM47,13H48V14H47zM48,13H49V14H48zM49,13H50V14H49zM52,13H53V14H52zM53,13H54V14H53zM54,13H55V14H54zM55,13H56V14H55zM57,13H58V14H57zM59,13H60V14H59zM60,13H61V14H60zM4,14H5V15H4zM5,14H6V15H5zM7,14H8V15H7zM8,14H9V15H8zM9,14H10V15H9zM10,14H11V15H10zM12,14H13V15H12zM15,14H16V15H15zM16,14H17V15H16zM17,14H18V15H17zM18,14H19V15H18zM23,14H24V15H23zM24,14H25V15H24zM27,14H28V15H27zM28,14H29V15H28zM30,14H31V15H30zM31,14H32V15H31zM32,14H33V15H32zM33,14H34V15H33zM34,14H35V15H34zM36,14H37V15H36zM37,14H38V15H37zM41,14H42V15H41zM44,14H45V15H44zM46,14H47V15H46zM49,14H50V15H49zM51,14H52V15H51zM52,14H53V15H52zM54,14H55V15H54zM57,14H58V15H57zM59,14H60V15H59zM4,15H5V16H4zM5,15H6V16H5zM6,15H7V16H6zM7,15H8V16H7zM11,15H12V16H11zM12,15H13V16H12zM14,15H15V16H14zM16,15H17V16H16zM17,15H18V16H17zM18,15H19V16H18zM21,15H22V16H21zM22,15H23V16H22zM23,15H24V16H23zM24,15H25V16H24zM28,15H29V16H28zM30,15H31V16H30zM31,15H32V16H31zM33,15H34V16H33zM35,15H36V16H35zM36,15H37V16H36zM37,15H38V16H37zM38,15H39V16H38zM39,15H40V16H39zM40,15H41V16H40zM43,15H44V16H43zM45,15H46V16H45zM46,15H47V16H46zM47,15H48V16H47zM48,15H49V16H48zM52,15H53V16H52zM53,15H54V16H53zM54,15H55V16H54zM55,15H56V16H55zM56,15H57V16H56zM57,15H58V16H57zM58,15H59V16H58zM59,15H60V16H59zM4,16H5V17H4zM5,16H6V17H5zM6,16H7V17H6zM9,16H10V17H9zM10,16H11V17H10zM11,16H12V17H11zM14,16H15V17H14zM16,16H17V17H16zM19,16H20V17H19zM20,16H21V17H20zM25,16H26V17H25zM26,16H27V17H26zM28,16H29V17H28zM30,16H31V17H30zM31,16H32V17H31zM34,16H35V17H34zM35,16H36V17H35zM36,16H37V17H36zM38,16H39V17H38zM39,16H40V17H39zM40,16H41V17H40zM44,16H45V17H44zM48,16H49V17H48zM51,16H52V17H51zM56,16H57V17H56zM57,16H58V17H57zM60,16H61V17H60zM4,17H5V18H4zM7,17H8V18H7zM8,17H9V18H8zM9,17H10V18H9zM11,17H12V18H11zM14,17H15V18H14zM15,17H16V18H15zM16,17H17V18H16zM17,17H18V18H17zM20,17H21V18H20zM22,17H23V18H22zM23,17H24V18H23zM24,17H25V18H24zM25,17H26V18H25zM26,17H27V18H26zM32,17H33V18H32zM35,17H36V18H35zM36,17H37V18H36zM38,17H39V18H38zM40,17H41V18H40zM46,17H47V18H46zM47,17H48V18H47zM48,17H49V18H48zM51,17H52V18H51zM52,17H53V18H52zM53,17H54V18H53zM57,17H58V18H57zM60,17H61V18H60zM4,18H5V19H4zM8,18H9V19H8zM10,18H11V19H10zM11,18H12V19H11zM13,18H14V19H13zM15,18H16V19H15zM16,18H17V19H16zM18,18H19V19H18zM21,18H22V19H21zM23,18H24V19H23zM24,18H25V19H24zM25,18H26V19H25zM26,18H27V19H26zM27,18H28V19H27zM29,18H30V19H29zM31,18H32V19H31zM35,18H36V19H35zM36,18H37V19H36zM37,18H38V19H37zM38,18H39V19H38zM39,18H40V19H39zM40,18H41V19H40zM42,18H43V19H42zM44,18H45V19H44zM45,18H46V19H45zM47,18H48V19H47zM48,18H49V19H48zM50,18H51V19H50zM51,18H52V19H51zM52,18H53V19H52zM54,18H55V19H54zM57,18H58V19H57zM4,19H5V20H4zM7,19H8V20H7zM8,19H9V20H8zM9,19H10V20H9zM11,19H12V20H11zM12,19H13V20H12zM14,19H15V20H14zM15,19H16V20H15zM16,19H17V20H16zM18,19H19V20H18zM22,19H23V20H22zM23,19H24V20H23zM24,19H25V20H24zM26,19H27V20H26zM28,19H29V20H28zM29,19H30V20H29zM30,19H31V20H30zM32,19H33V20H32zM33,19H34V20H33zM35,19H36V20H35zM36,19H37V20H36zM37,19H38V20H37zM42,19H43V20H42zM43,19H44V20H43zM45,19H46V20H45zM46,19H47V20H46zM47,19H48V20H47zM49,19H50V20H49zM52,19H53V20H52zM53,19H54V20H53zM55,19H56V20H55zM56,19H57V20H56zM58,19H59V20H58zM59,19H60V20H59zM5,20H6V21H5zM8,20H9V21H8zM9,20H10V21H9zM10,20H11V21H10zM18,20H19V21H18zM20,20H21V21H20zM21,20H22V21H21zM30,20H31V21H30zM31,20H32V21H31zM33,20H34V21H33zM34,20H35V21H34zM37,20H38V21H37zM38,20H39V21H38zM40,20H41V21H40zM42,20H43V21H42zM47,20H48V21H47zM49,20H50V21H49zM50,20H51V21H50zM53,20H54V21H53zM55,20H56V21H55zM4,21H5V22H4zM7,21H8V22H7zM8,21H9V22H8zM11,21H12V22H11zM12,21H13V22H12zM15,21H16V22H15zM16,21H17V22H16zM17,21H18V22H17zM20,21H21V22H20zM23,21H24V22H23zM28,21H29V22H28zM29,21H30V22H29zM33,21H34V22H33zM35,21H36V22H35zM38,21H39V22H38zM39,21H40V22H39zM40,21H41V22H40zM41,21H42V22H41zM43,21H44V22H43zM44,21H45V22H44zM45,21H46V22H45zM46,21H47V22H46zM47,21H48V22H47zM49,21H50V22H49zM51,21H52V22H51zM52,21H53V22H52zM53,21H54V22H53zM55,21H56V22H55zM60,21H61V22H60zM8,22H9V23H8zM9,22H10V23H9zM10,22H11V23H10zM12,22H13V23H12zM17,22H18V23H17zM18,22H19V23H18zM20,22H21V23H20zM22,22H23V23H22zM23,22H24V23H23zM24,22H25V23H24zM25,22H26V23H25zM27,22H28V23H27zM28,22H29V23H28zM30,22H31V23H30zM31,22H32V23H31zM34,22H35V23H34zM36,22H37V23H36zM40,22H41V23H40zM41,22H42V23H41zM48,22H49V23H48zM49,22H50V23H49zM51,22H52V23H51zM53,22H54V23H53zM55,22H56V23H55zM56,22H57V23H56zM57,22H58V23H57zM58,22H59V23H58zM60,22H61V23H60zM5,23H6V24H5zM6,23H7V24H6zM9,23H10V24H9zM11,23H12V24H11zM12,23H13V24H12zM14,23H15V24H14zM18,23H19V24H18zM21,23H22V24H21zM22,23H23V24H22zM24,23H25V24H24zM25,23H26V24H25zM27,23H28V24H27zM28,23H29V24H28zM31,23H32V24H31zM33,23H34V24H33zM34,23H35V24H34zM35,23H36V24H35zM38,23H39V24H38zM43,23H44V24H43zM44,23H45V24H44zM46,23H47V24H46zM47,23H48V24H47zM48,23H49V24H48zM51,23H52V24H51zM52,23H53V24H52zM55,23H56V24H55zM56,23H57V24H56zM57,23H58V24H57zM58,23H59V24H58zM59,23H60V24H59zM60,23H61V24H60zM4,24H5V25H4zM7,24H8V25H7zM9,24H10V25H9zM10,24H11V25H10zM11,24H12V25H11zM15,24H16V25H15zM17,24H18V25H17zM19,24H20V25H19zM21,24H22V25H21zM22,24H23V25H22zM24,24H25V25H24zM25,24H26V25H25zM26,24H27V25H26zM27,24H28V25H27zM30,24H31V25H30zM31,24H32V25H31zM32,24H33V25H32zM33,24H34V25H33zM36,24H37V25H36zM38,24H39V25H38zM40,24H41V25H40zM41,24H42V25H41zM42,24H43V25H42zM51,24H52V25H51zM54,24H55V25H54zM57,24H58V25H57zM58,24H59V25H58zM59,24H60V25H59zM4,25H5V26H4zM11,25H12V26H11zM13,25H14V26H13zM14,25H15V26H14zM15,25H16V26H15zM16,25H17V26H16zM17,25H18V26H17zM18,25H19V26H18zM20,25H21V26H20zM21,25H22V26H21zM25,25H26V26H25zM29,25H30V26H29zM30,25H31V26H30zM31,25H32V26H31zM34,25H35V26H34zM35,25H36V26H35zM37,25H38V26H37zM39,25H40V26H39zM40,25H41V26H40zM41,25H42V26H41zM42,25H43V26H42zM43,25H44V26H43zM45,25H46V26H45zM46,25H47V26H46zM49,25H50V26H49zM50,25H51V26H50zM52,25H53V26H52zM53,25H54V26H53zM54,25H55V26H54zM55,25H56V26H55zM58,25H59V26H58zM4,26H5V27H4zM6,26H7V27H6zM7,26H8V27H7zM8,26H9V27H8zM9,26H10V27H9zM10,26H11V27H10zM11,26H12V27H11zM12,26H13V27H12zM14,26H15V27H14zM17,26H18V27H17zM18,26H19V27H18zM22,26H23V27H22zM24,26H25V27H24zM25,26H26V27H25zM27,26H28V27H27zM28,26H29V27H28zM29,26H30V27H29zM30,26H31V27H30zM32,26H33V27H32zM33,26H34V27H33zM36,26H37V27H36zM37,26H38V27H37zM42,26H43V27H42zM43,26H44V27H43zM49,26H50V27H49zM51,26H52V27H51zM54,26H55V27H54zM56,26H57V27H56zM57,26H58V27H57zM58,26H59V27H58zM59,26H60V27H59zM4,27H5V28H4zM5,27H6V28H5zM6,27H7V28H6zM11,27H12V28H11zM12,27H13V28H12zM13,27H14V28H13zM16,27H17V28H16zM17,27H18V28H17zM18,27H19V28H18zM19,27H20V28H19zM20,27H21V28H20zM23,27H24V28H23zM24,27H25V28H24zM26,27H27V28H26zM27,27H28V28H27zM29,27H30V28H29zM30,27H31V28H30zM33,27H34V28H33zM34,27H35V28H34zM35,27H36V28H35zM36,27H37V28H36zM40,27H41V28H40zM45,27H46V28H45zM47,27H48V28H47zM48,27H49V28H48zM49,27H50V28H49zM51,27H52V28H51zM54,27H55V28H54zM55,27H56V28H55zM56,27H57V28H56zM58,27H59V28H58zM5,28H6V29H5zM6,28H7V29H6zM8,28H9V29H8zM9,28H10V29H9zM10,28H11V29H10zM11,28H12V29H11zM12,28H13V29H12zM13,28H14V29H13zM14,28H15V29H14zM17,28H18V29H17zM20,28H21V29H20zM21,28H22V29H21zM28,28H29V29H28zM29,28H30V29H29zM30,28H31V29H30zM33,28H34V29H33zM35,28H36V29H35zM36,28H37V29H36zM45,28H46V29H45zM48,28H49V29H48zM50,28H51V29H50zM51,28H52V29H51zM54,28H55V29H54zM55,28H56V29H55zM56,28H57V29H56zM58,28H59V29H58zM59,28H60V29H59zM60,28H61V29H60zM5,29H6V30H5zM6,29H7V30H6zM7,29H8V30H7zM8,29H9V30H8zM14,29H15V30H14zM15,29H16V30H15zM16,29H17V30H16zM17,29H18V30H17zM18,29H19V30H18zM19,29H20V30H19zM20,29H21V30H20zM22,29H23V30H22zM23,29H24V30H23zM27,29H28V30H27zM29,29H30V30H29zM30,29H31V30H30zM31,29H32V30H31zM32,29H33V30H32zM33,29H34V30H33zM34,29H35V30H34zM35,29H36V30H35zM38,29H39V30H38zM39,29H40V30H39zM41,29H42V30H41zM44,29H45V30H44zM45,29H46V30H45zM47,29H48V30H47zM48,29H49V30H48zM49,29H50V30H49zM52,29H53V30H52zM53,29H54V30H53zM58,29H59V30H58zM4,30H5V31H4zM7,30H8V31H7zM8,30H9V31H8zM9,30H10V31H9zM10,30H11V31H10zM11,30H12V31H11zM12,30H13V31H12zM16,30H17V31H16zM19,30H20V31H19zM23,30H24V31H23zM24,30H25V31H24zM28,30H29V31H28zM29,30H30V31H29zM30,30H31V31H30zM31,30H32V31H31zM32,30H33V31H32zM33,30H34V31H33zM34,30H35V31H34zM35,30H36V31H35zM36,30H37V31H36zM40,30H41V31H40zM41,30H42V31H41zM44,30H45V31H44zM46,30H47V31H46zM47,30H48V31H47zM48,30H49V31H48zM49,30H50V31H49zM51,30H52V31H51zM52,30H53V31H52zM53,30H54V31H53zM54,30H55V31H54zM55,30H56V31H55zM56,30H57V31H56zM57,30H58V31H57zM59,30H60V31H59zM60,30H61V31H60zM6,31H7V32H6zM8,31H9V32H8zM12,31H13V32H12zM16,31H17V32H16zM17,31H18V32H17zM18,31H19V32H18zM19,31H20V32H19zM22,31H23V32H22zM23,31H24V32H23zM24,31H25V32H24zM26,31H27V32H26zM27,31H28V32H27zM30,31H31V32H30zM34,31H35V32H34zM35,31H36V32H35zM37,31H38V32H37zM39,31H40V32H39zM42,31H43V32H42zM44,31H45V32H44zM45,31H46V32H45zM46,31H47V32H46zM48,31H49V32H48zM52,31H53V32H52zM56,31H57V32H56zM57,31H58V32H57zM58,31H59V32H58zM4,32H5V33H4zM5,32H6V33H5zM6,32H7V33H6zM8,32H9V33H8zM10,32H11V33H10zM12,32H13V33H12zM14,32H15V33H14zM15,32H16V33H15zM16,32H17V33H16zM18,32H19V33H18zM20,32H21V33H20zM23,32H24V33H23zM25,32H26V33H25zM27,32H28V33H27zM28,32H29V33H28zM29,32H30V33H29zM30,32H31V33H30zM32,32H33V33H32zM34,32H35V33H34zM37,32H38V33H37zM39,32H40V33H39zM40,32H41V33H40zM42,32H43V33H42zM44,32H45V33H44zM46,32H47V33H46zM47,32H48V33H47zM49,32H50V33H49zM50,32H51V33H50zM51,32H52V33H51zM52,32H53V33H52zM54,32H55V33H54zM56,32H57V33H56zM59,32H60V33H59zM60,32H61V33H60zM4,33H5V34H4zM5,33H6V34H5zM7,33H8V34H7zM8,33H9V34H8zM12,33H13V34H12zM16,33H17V34H16zM17,33H18V34H17zM18,33H19V34H18zM19,33H20V34H19zM20,33H21V34H20zM21,33H22V34H21zM22,33H23V34H22zM23,33H24V34H23zM24,33H25V34H24zM27,33H28V34H27zM28,33H29V34H28zM30,33H31V34H30zM34,33H35V34H34zM35,33H36V34H35zM36,33H37V34H36zM41,33H42V34H41zM44,33H45V34H44zM45,33H46V34H45zM46,33H47V34H46zM47,33H48V34H47zM49,33H50V34H49zM52,33H53V34H52zM56,33H57V34H56zM57,33H58V34H57zM59,33H60V34H59zM60,33H61V34H60zM6,34H7V35H6zM8,34H9V35H8zM9,34H10V35H9zM10,34H11V35H10zM11,34H12V35H11zM12,34H13V35H12zM16,34H17V35H16zM19,34H20V35H19zM21,34H22V35H21zM25,34H26V35H25zM30,34H31V35H30zM31,34H32V35H31zM32,34H33V35H32zM33,34H34V35H33zM34,34H35V35H34zM35,34H36V35H35zM36,34H37V35H36zM38,34H39V35H38zM41,34H42V35H41zM45,34H46V35H45zM47,34H48V35H47zM48,34H49V35H48zM49,34H50V35H49zM52,34H53V35H52zM53,34H54V35H53zM54,34H55V35H54zM55,34H56V35H55zM56,34H57V35H56zM60,34H61V35H60zM4,35H5V36H4zM5,35H6V36H5zM6,35H7V36H6zM7,35H8V36H7zM11,35H12V36H11zM12,35H13V36H12zM14,35H15V36H14zM15,35H16V36H15zM19,35H20V36H19zM20,35H21V36H20zM21,35H22V36H21zM23,35H24V36H23zM24,35H25V36H24zM25,35H26V36H25zM26,35H27V36H26zM28,35H29V36H28zM30,35H31V36H30zM32,35H33V36H32zM36,35H37V36H36zM38,35H39V36H38zM39,35H40V36H39zM43,35H44V36H43zM45,35H46V36H45zM48,35H49V36H48zM49,35H50V36H49zM51,35H52V36H51zM56,35H57V36H56zM57,35H58V36H57zM58,35H59V36H58zM59,35H60V36H59zM6,36H7V37H6zM10,36H11V37H10zM16,36H17V37H16zM17,36H18V37H17zM18,36H19V37H18zM19,36H20V37H19zM20,36H21V37H20zM24,36H25V37H24zM25,36H26V37H25zM26,36H27V37H26zM29,36H30V37H29zM31,36H32V37H31zM33,36H34V37H33zM34,36H35V37H34zM35,36H36V37H35zM36,36H37V37H36zM37,36H38V37H37zM45,36H46V37H45zM47,36H48V37H47zM49,36H50V37H49zM50,36H51V37H50zM52,36H53V37H52zM53,36H54V37H53zM56,36H57V37H56zM59,36H60V37H59zM4,37H5V38H4zM6,37H7V38H6zM8,37H9V38H8zM11,37H12V38H11zM13,37H14V38H13zM14,37H15V38H14zM16,37H17V38H16zM18,37H19V38H18zM19,37H20V38H19zM21,37H22V38H21zM24,37H25V38H24zM26,37H27V38H26zM27,37H28V38H27zM30,37H31V38H30zM32,37H33V38H32zM33,37H34V38H33zM34,37H35V38H34zM35,37H36V38H35zM36,37H37V38H36zM37,37H38V38H37zM38,37H39V38H38zM40,37H41V38H40zM42,37H43V38H42zM45,37H46V38H45zM46,37H47V38H46zM47,37H48V38H47zM50,37H51V38H50zM52,37H53V38H52zM55,37H56V38H55zM56,37H57V38H56zM57,37H58V38H57zM59,37H60V38H59zM60,37H61V38H60zM4,38H5V39H4zM7,38H8V39H7zM10,38H11V39H10zM12,38H13V39H12zM15,38H16V39H15zM18,38H19V39H18zM20,38H21V39H20zM21,38H22V39H21zM25,38H26V39H25zM28,38H29V39H28zM30,38H31V39H30zM32,38H33V39H32zM33,38H34V39H33zM35,38H36V39H35zM36,38H37V39H36zM37,38H38V39H37zM40,38H41V39H40zM41,38H42V39H41zM42,38H43V39H42zM43,38H44V39H43zM44,38H45V39H44zM47,38H48V39H47zM48,38H49V39H48zM50,38H51V39H50zM53,38H54V39H53zM55,38H56V39H55zM57,38H58V39H57zM59,38H60V39H59zM5,39H6V40H5zM6,39H7V40H6zM8,39H9V40H8zM15,39H16V40H15zM16,39H17V40H16zM17,39H18V40H17zM20,39H21V40H20zM22,39H23V40H22zM23,39H24V40H23zM28,39H29V40H28zM31,39H32V40H31zM39,39H40V40H39zM40,39H41V40H40zM41,39H42V40H41zM42,39H43V40H42zM44,39H45V40H44zM46,39H47V40H46zM48,39H49V40H48zM49,39H50V40H49zM52,39H53V40H52zM54,39H55V40H54zM55,39H56V40H55zM56,39H57V40H56zM57,39H58V40H57zM58,39H59V40H58zM59,39H60V40H59zM60,39H61V40H60zM7,40H8V41H7zM9,40H10V41H9zM10,40H11V41H10zM13,40H14V41H13zM17,40H18V41H17zM18,40H19V41H18zM19,40H20V41H19zM20,40H21V41H20zM21,40H22V41H21zM23,40H24V41H23zM24,40H25V41H24zM25,40H26V41H25zM26,40H27V41H26zM27,40H28V41H27zM29,40H30V41H29zM30,40H31V41H30zM31,40H32V41H31zM32,40H33V41H32zM33,40H34V41H33zM36,40H37V41H36zM37,40H38V41H37zM39,40H40V41H39zM40,40H41V41H40zM41,40H42V41H41zM44,40H45V41H44zM45,40H46V41H45zM46,40H47V41H46zM47,40H48V41H47zM48,40H49V41H48zM51,40H52V41H51zM55,40H56V41H55zM57,40H58V41H57zM59,40H60V41H59zM60,40H61V41H60zM4,41H5V42H4zM7,41H8V42H7zM11,41H12V42H11zM12,41H13V42H12zM13,41H14V42H13zM17,41H18V42H17zM18,41H19V42H18zM20,41H21V42H20zM21,41H22V42H21zM22,41H23V42H22zM24,41H25V42H24zM26,41H27V42H26zM27,41H28V42H27zM30,41H31V42H30zM31,41H32V42H31zM32,41H33V42H32zM33,41H34V42H33zM35,41H36V42H35zM36,41H37V42H36zM37,41H38V42H37zM41,41H42V42H41zM42,41H43V42H42zM43,41H44V42H43zM45,41H46V42H45zM46,41H47V42H46zM47,41H48V42H47zM48,41H49V42H48zM49,41H50V42H49zM52,41H53V42H52zM54,41H55V42H54zM55,41H56V42H55zM58,41H59V42H58zM59,41H60V42H59zM4,42H5V43H4zM6,42H7V43H6zM9,42H10V43H9zM10,42H11V43H10zM13,42H14V43H13zM14,42H15V43H14zM16,42H17V43H16zM17,42H18V43H17zM19,42H20V43H19zM23,42H24V43H23zM25,42H26V43H25zM30,42H31V43H30zM31,42H32V43H31zM32,42H33V43H32zM33,42H34V43H33zM35,42H36V43H35zM36,42H37V43H36zM37,42H38V43H37zM43,42H44V43H43zM45,42H46V43H45zM46,42H47V43H46zM47,42H48V43H47zM48,42H49V43H48zM49,42H50V43H49zM50,42H51V43H50zM52,42H53V43H52zM53,42H54V43H53zM54,42H55V43H54zM55,42H56V43H55zM59,42H60V43H59zM4,43H5V44H4zM8,43H9V44H8zM9,43H10V44H9zM11,43H12V44H11zM13,43H14V44H13zM14,43H15V44H14zM15,43H16V44H15zM16,43H17V44H16zM20,43H21V44H20zM21,43H22V44H21zM27,43H28V44H27zM30,43H31V44H30zM35,43H36V44H35zM38,43H39V44H38zM39,43H40V44H39zM40,43H41V44H40zM41,43H42V44H41zM44,43H45V44H44zM45,43H46V44H45zM48,43H49V44H48zM50,43H51V44H50zM51,43H52V44H51zM54,43H55V44H54zM55,43H56V44H55zM57,43H58V44H57zM58,43H59V44H58zM59,43H60V44H59zM60,43H61V44H60zM7,44H8V45H7zM10,44H11V45H10zM12,44H13V45H12zM15,44H16V45H15zM16,44H17V45H16zM17,44H18V45H17zM24,44H25V45H24zM26,44H27V45H26zM27,44H28V45H27zM29,44H30V45H29zM30,44H31V45H30zM32,44H33V45H32zM33,44H34V45H33zM35,44H36V45H35zM39,44H40V45H39zM42,44H43V45H42zM45,44H46V45H45zM47,44H48V45H47zM48,44H49V45H48zM53,44H54V45H53zM55,44H56V45H55zM56,44H57V45H56zM58,44H59V45H58zM60,44H61V45H60zM4,45H5V46H4zM6,45H7V46H6zM12,45H13V46H12zM14,45H15V46H14zM16,45H17V46H16zM17,45H18V46H17zM18,45H19V46H18zM20,45H21V46H20zM21,45H22V46H21zM23,45H24V46H23zM24,45H25V46H24zM28,45H29V46H28zM29,45H30V46H29zM30,45H31V46H30zM34,45H35V46H34zM35,45H36V46H35zM36,45H37V46H36zM37,45H38V46H37zM41,45H42V46H41zM42,45H43V46H42zM43,45H44V46H43zM44,45H45V46H44zM45,45H46V46H45zM46,45H47V46H46zM48,45H49V46H48zM52,45H53V46H52zM58,45H59V46H58zM60,45H61V46H60zM9,46H10V47H9zM10,46H11V47H10zM11,46H12V47H11zM12,46H13V47H12zM15,46H16V47H15zM17,46H18V47H17zM21,46H22V47H21zM22,46H23V47H22zM25,46H26V47H25zM28,46H29V47H28zM29,46H30V47H29zM30,46H31V47H30zM31,46H32V47H31zM32,46H33V47H32zM34,46H35V47H34zM36,46H37V47H36zM38,46H39V47H38zM41,46H42V47H41zM42,46H43V47H42zM43,46H44V47H43zM44,46H45V47H44zM46,46H47V47H46zM50,46H51V47H50zM54,46H55V47H54zM55,46H56V47H55zM56,46H57V47H56zM60,46H61V47H60zM4,47H5V48H4zM5,47H6V48H5zM8,47H9V48H8zM11,47H12V48H11zM13,47H14V48H13zM15,47H16V48H15zM17,47H18V48H17zM18,47H19V48H18zM19,47H20V48H19zM23,47H24V48H23zM30,47H31V48H30zM31,47H32V48H31zM33,47H34V48H33zM34,47H35V48H34zM35,47H36V48H35zM36,47H37V48H36zM38,47H39V48H38zM40,47H41V48H40zM46,47H47V48H46zM48,47H49V48H48zM50,47H51V48H50zM53,47H54V48H53zM54,47H55V48H54zM55,47H56V48H55zM57,47H58V48H57zM58,47H59V48H58zM59,47H60V48H59zM5,48H6V49H5zM10,48H11V49H10zM11,48H12V49H11zM12,48H13V49H12zM13,48H14V49H13zM14,48H15V49H14zM15,48H16V49H15zM16,48H17V49H16zM17,48H18V49H17zM20,48H21V49H20zM21,48H22V49H21zM22,48H23V49H22zM23,48H24V49H23zM25,48H26V49H25zM26,48H27V49H26zM28,48H29V49H28zM29,48H30V49H29zM30,48H31V49H30zM32,48H33V49H32zM33,48H34V49H33zM39,48H40V49H39zM41,48H42V49H41zM46,48H47V49H46zM47,48H48V49H47zM49,48H50V49H49zM50,48H51V49H50zM52,48H53V49H52zM53,48H54V49H53zM54,48H55V49H54zM55,48H56V49H55zM56,48H57V49H56zM59,48H60V49H59zM8,49H9V50H8zM11,49H12V50H11zM14,49H15V50H14zM16,49H17V50H16zM20,49H21V50H20zM21,49H22V50H21zM22,49H23V50H22zM23,49H24V50H23zM24,49H25V50H24zM25,49H26V50H25zM26,49H27V50H26zM27,49H28V50H27zM32,49H33V50H32zM36,49H37V50H36zM37,49H38V50H37zM39,49H40V50H39zM40,49H41V50H40zM42,49H43V50H42zM43,49H44V50H43zM44,49H45V50H44zM45,49H46V50H45zM46,49H47V50H46zM50,49H51V50H50zM54,49H55V50H54zM55,49H56V50H55zM56,49H57V50H56zM57,49H58V50H57zM59,49H60V50H59zM4,50H5V51H4zM6,50H7V51H6zM9,50H10V51H9zM10,50H11V51H10zM13,50H14V51H13zM15,50H16V51H15zM16,50H17V51H16zM17,50H18V51H17zM21,50H22V51H21zM24,50H25V51H24zM25,50H26V51H25zM26,50H27V51H26zM27,50H28V51H27zM28,50H29V51H28zM29,50H30V51H29zM31,50H32V51H31zM32,50H33V51H32zM34,50H35V51H34zM36,50H37V51H36zM38,50H39V51H38zM39,50H40V51H39zM41,50H42V51H41zM43,50H44V51H43zM46,50H47V51H46zM47,50H48V51H47zM49,50H50V51H49zM50,50H51V51H50zM53,50H54V51H53zM56,50H57V51H56zM57,50H58V51H57zM58,50H59V51H58zM59,50H60V51H59zM4,51H5V52H4zM5,51H6V52H5zM6,51H7V52H6zM7,51H8V52H7zM8,51H9V52H8zM11,51H12V52H11zM12,51H13V52H12zM14,51H15V52H14zM16,51H17V52H16zM17,51H18V52H17zM20,51H21V52H20zM23,51H24V52H23zM25,51H26V52H25zM29,51H30V52H29zM30,51H31V52H30zM31,51H32V52H31zM34,51H35V52H34zM39,51H40V52H39zM40,51H41V52H40zM44,51H45V52H44zM45,51H46V52H45zM46,51H47V52H46zM47,51H48V52H47zM51,51H52V52H51zM52,51H53V52H52zM54,51H55V52H54zM55,51H56V52H55zM56,51H57V52H56zM57,51H58V52H57zM58,51H59V52H58zM59,51H60V52H59zM10,52H11V53H10zM13,52H14V53H13zM14,52H15V53H14zM15,52H16V53H15zM16,52H17V53H16zM18,52H19V53H18zM22,52H23V53H22zM24,52H25V53H24zM28,52H29V53H28zM29,52H30V53H29zM30,52H31V53H30zM31,52H32V53H31zM32,52H33V53H32zM33,52H34V53H33zM34,52H35V53H34zM37,52H38V53H37zM39,52H40V53H39zM40,52H41V53H40zM42,52H43V53H42zM44,52H45V53H44zM45,52H46V53H45zM48,52H49V53H48zM51,52H52V53H51zM52,52H53V53H52zM53,52H54V53H53zM54,52H55V53H54zM55,52H56V53H55zM56,52H57V53H56zM57,52H58V53H57zM12,53H13V54H12zM14,53H15V54H14zM15,53H16V54H15zM16,53H17V54H16zM17,53H18V54H17zM19,53H20V54H19zM20,53H21V54H20zM21,53H22V54H21zM22,53H23V54H22zM23,53H24V54H23zM24,53H25V54H24zM27,53H28V54H27zM29,53H30V54H29zM30,53H31V54H30zM34,53H35V54H34zM35,53H36V54H35zM36,53H37V54H36zM37,53H38V54H37zM39,53H40V54H39zM40,53H41V54H40zM44,53H45V54H44zM45,53H46V54H45zM46,53H47V54H46zM49,53H50V54H49zM52,53H53V54H52zM56,53H57V54H56zM58,53H59V54H58zM60,53H61V54H60zM4,54H5V55H4zM5,54H6V55H5zM6,54H7V55H6zM7,54H8V55H7zM8,54H9V55H8zM9,54H10V55H9zM10,54H11V55H10zM13,54H14V55H13zM14,54H15V55H14zM17,54H18V55H17zM21,54H22V55H21zM24,54H25V55H24zM26,54H27V55H26zM27,54H28V55H27zM28,54H29V55H28zM29,54H30V55H29zM30,54H31V55H30zM32,54H33V55H32zM34,54H35V55H34zM35,54H36V55H35zM36,54H37V55H36zM38,54H39V55H38zM39,54H40V55H39zM41,54H42V55H41zM45,54H46V55H45zM48,54H49V55H48zM49,54H50V55H49zM50,54H51V55H50zM51,54H52V55H51zM52,54H53V55H52zM54,54H55V55H54zM56,54H57V55H56zM57,54H58V55H57zM58,54H59V55H58zM59,54H60V55H59zM4,55H5V56H4zM10,55H11V56H10zM12,55H13V56H12zM13,55H14V56H13zM15,55H16V56H15zM19,55H20V56H19zM20,55H21V56H20zM21,55H22V56H21zM22,55H23V56H22zM30,55H31V56H30zM34,55H35V56H34zM38,55H39V56H38zM39,55H40V56H39zM41,55H42V56H41zM45,55H46V56H45zM48,55H49V56H48zM49,55H50V56H49zM50,55H51V56H50zM52,55H53V56H52zM56,55H57V56H56zM58,55H59V56H58zM4,56H5V57H4zM6,56H7V57H6zM7,56H8V57H7zM8,56H9V57H8zM10,56H11V57H10zM13,56H14V57H13zM18,56H19V57H18zM19,56H20V57H19zM20,56H21V57H20zM23,56H24V57H23zM25,56H26V57H25zM28,56H29V57H28zM30,56H31V57H30zM31,56H32V57H31zM32,56H33V57H32zM33,56H34V57H33zM34,56H35V57H34zM36,56H37V57H36zM38,56H39V57H38zM40,56H41V57H40zM41,56H42V57H41zM42,56H43V57H42zM45,56H46V57H45zM46,56H47V57H46zM47,56H48V57H47zM49,56H50V57H49zM50,56H51V57H50zM51,56H52V57H51zM52,56H53V57H52zM53,56H54V57H53zM54,56H55V57H54zM55,56H56V57H55zM56,56H57V57H56zM59,56H60V57H59zM60,56H61V57H60zM4,57H5V58H4zM6,57H7V58H6zM7,57H8V58H7zM8,57H9V58H8zM10,57H11V58H10zM13,57H14V58H13zM18,57H19V58H18zM21,57H22V58H21zM22,57H23V58H22zM23,57H24V58H23zM27,57H28V58H27zM28,57H29V58H28zM32,57H33V58H32zM36,57H37V58H36zM37,57H38V58H37zM38,57H39V58H38zM41,57H42V58H41zM42,57H43V58H42zM43,57H44V58H43zM44,57H45V58H44zM46,57H47V58H46zM48,57H49V58H48zM49,57H50V58H49zM53,57H54V58H53zM55,57H56V58H55zM56,57H57V58H56zM57,57H58V58H57zM4,58H5V59H4zM6,58H7V59H6zM7,58H8V59H7zM8,58H9V59H8zM10,58H11V59H10zM14,58H15V59H14zM18,58H19V59H18zM20,58H21V59H20zM21,58H22V59H21zM25,58H26V59H25zM27,58H28V59H27zM28,58H29V59H28zM29,58H30V59H29zM37,58H38V59H37zM39,58H40V59H39zM40,58H41V59H40zM41,58H42V59H41zM45,58H46V59H45zM46,58H47V59H46zM48,58H49V59H48zM49,58H50V59H49zM50,58H51V59H50zM52,58H53V59H52zM54,58H55V59H54zM56,58H57V59H56zM57,58H58V59H57zM59,58H60V59H59zM60,58H61V59H60zM4,59H5V60H4zM10,59H11V60H10zM15,59H16V60H15zM16,59H17V60H16zM17,59H18V60H17zM18,59H19V60H18zM19,59H20V60H19zM21,59H22V60H21zM22,59H23V60H22zM23,59H24V60H23zM24,59H25V60H24zM25,59H26V60H25zM28,59H29V60H28zM29,59H30V60H29zM30,59H31V60H30zM33,59H34V60H33zM34,59H35V60H34zM35,59H36V60H35zM36,59H37V60H36zM37,59H38V60H37zM38,59H39V60H38zM39,59H40V60H39zM43,59H44V60H43zM46,59H47V60H46zM51,59H52V60H51zM52,59H53V60H52zM57,59H58V60H57zM4,60H5V61H4zM5,60H6V61H5zM6,60H7V61H6zM7,60H8V61H7zM8,60H9V61H8zM9,60H10V61H9zM10,60H11V61H10zM14,60H15V61H14zM17,60H18V61H17zM19,60H20V61H19zM20,60H21V61H20zM21,60H22V61H21zM23,60H24V61H23zM24,60H25V61H24zM26,60H27V61H26zM28,60H29V61H28zM30,60H31V61H30zM31,60H32V61H31zM33,60H34V61H33zM36,60H37V61H36zM37,60H38V61H37zM38,60H39V61H38zM40,60H41V61H40zM42,60H43V61H42zM43,60H44V61H43zM45,60H46V61H45zM46,60H47V61H46zM47,60H48V61H47zM54,60H55V61H54zM55,60H56V61H55zM56,60H57V61H56zM58,60H59V61H58zM59,60H60V61H59z" id="qr-path" fill="#000000" fill-opacity="1" fill-rule="nonzero" stroke="none" /></svg>