<?xml version='1.0' encoding='UTF-8'?>
<svg width="65mm" height="65mm" version="1.1" viewBox="0 0 65 65" xmlns="http://www.w3.org/2000/svg"><path d="M4,4H5V5H4zM5,4H6V5H5zM6,4H7V5H6zM7,4H8V5H7zM8,4H9V5H8zM9,4H10V5H9zM10,4H11V5H10zM13,4H14V5H13zM14,4H15V5H14zM15,4H16V5H15zM17,4H18V5H17zM18,4H19V5H18zM19,4H20V5H19zM21,4H22V5H21zM22,4H23V5H22zM25,4H26V5H25zM26,4H27V5H26zM27,4H28V5H27zM33,4H34V5H33zM34,4H35V5H34zM35,4H36V5H35zM37,4H38V5H37zM38,4H39V5H38zM39,4H40V5H39zM40,4H41V5H40zM41,4H42V5H41zM44,4H45V5H44zM46,4H47V5H46zM47,4H48V5H47zM49,4H50V5H49zM50,4H51V5H50zM51,4H52V5H51zM54,4H55V5H54zM55,4H56V5H55zM56,4H57V5H56zM57,4H58V5H57zM58,4H59V5H58zM59,4H60V5H59zM60,4H61V5H60zM4,5H5V6H4zM10,5H11V6H10zM13,5H14V6H13zM17,5H18V6H17zM20,5H21V6H20zM21,5H22V6H21zM23,5H24V6H23zM24,5H25V6H24zM28,5H29V6H28zM33,5H34V6H33zM36,5H37V6H36zM38,5H39V6H38zM39,5H40V6H39zM40,5H41V6H40zM43,5H44V6H43zM45,5H46V6H45zM46,5H47V6H46zM47,5H48V6H47zM49,5H50V6H49zM51,5H52V6H51zM54,5H55V6H54zM60,5H61V6H60zM4,6H5V7H4zM6,6H7V7H6zM7,6H8V7H7zM8,6H9V7H8zM10,6H11V7H10zM13,6H14V7H13zM20,6H21V7H20zM21,6H22V7H21zM23,6H24V7H23zM24,6H25V7H24zM25,6H26V7H25zM26,6H27V7H26zM29,6H30V7H29zM30,6H31V7H30zM32,6H33V7H32zM34,6H35V7H34zM36,6H37V7H36zM38,6H39V7H38zM39,6H40V7H39zM40,6H41V7H40zM41,6H42V7H41zM46,6H47V7H46zM47,6H48V7H47zM48,6H49V7H48zM50,6H51V7H50zM51,6H52V7H51zM54,6H55V7H54zM56,6H57V7H56zM57,6H58V7H57zM58,6H59V7H58zM60,6H61V7H60zM4,7H5V8H4zM6,7H7V8H6zM7,7H8V8H7zM8,7H9V8H8zM10,7H11V8H10zM13,7H14V8H13zM15,7H16V8H15zM18,7H19V8H18zM21,7H22V8H21zM22,7H23V8H22zM27,7H28V8H27zM28,7H29V8H28zM29,7H30V8H29zM31,7H32V8H31zM33,7H34V8H33zM34,7H35V8H34zM37,7H38V8H37zM38,7H39V8H38zM39,7H40V8H39zM41,7H42V8H41zM45,7H46V8H45zM46,7H47V8H46zM47,7H48V8H47zM51,7H52V8H51zM54,7H55V8H54zM56,7H57V8H56zM57,7H58V8H57zM58,7H59V8H58zM60,7H61V8H60zM4,8H5V9H4zM6,8H7V9H6zM7,8H8V9H7zM8,8H9V9H8zM10,8H11V9H10zM12,8H13V9H12zM13,8H14V9H13zM14,8H15V9H14zM15,8H16V9H15zM16,8H17V9H16zM18,8H19V9H18zM19,8H20V9H19zM21,8H22V9H21zM22,8H23V9H22zM23,8H24V9H23zM29,8H30V9H29zM30,8H31V9H30zM31,8H32V9H31zM32,8H33V9H32zM33,8H34V9H33zM34,8H35V9H34zM35,8H36V9H35zM37,8H38V9H37zM39,8H40V9H39zM40,8H41V9H40zM42,8H43V9H42zM43,8H44V9H43zM44,8H45V9H44zM47,8H48V9H47zM49,8H50V9H49zM51,8H52V9H51zM54,8H55V9H54zM56,8H57V9H56zM57,8H58V9H57zM58,8H59V9H58zM60,8H61V9H60zM4,9H5V10H4zM10,9H11V10H10zM17,9H18V10H17zM18,9H19V10H18zM20,9H21V10H20zM21,9H22V10H21zM23,9H24V10H23zM27,9H28V10H27zM28,9H29V10H28zM29,9H30V10H29zM30,9H31V10H30zM34,9H35V10H34zM39,9H40V10H39zM43,9H44V10H43zM44,9H45V10H44zM45,9H46V10H45zM46,9H47V10H46zM48,9H49V10H48zM49,9H50V10H49zM50,9H51V10H50zM54,9H55V10H54zM60,9H61V10H60zM4,10H5V11H4zM5,10H6V11H5zM6,10H7V11H6zM7,10H8V11H7zM8,10H9V11H8zM9,10H10V11H9zM10,10H11V11H10zM12,10H13V11H12zM14,10H15V11H14zM16,10H17V11H16zM18,10H19V11H18zM20,10H21V11H20zM22,10H23V11H22zM24,10H25V11H24zM26,10H27V11H26zM28,10H29V11H28zM30,10H31V11H30zM32,10H33V11H32zM34,10H35V11H34zM36,10H37V11H36zM38,10H39V11H38zM40,10H41V11H40zM42,10H43V11H42zM44,10H45V11H44zM46,10H47V11H46zM48,10H49V11H48zM50,10H51V11H50zM52,10H53V11H52zM54,10H55V11H54zM55,10H56V11H55zM56,10H57V11H56zM57,10H58V11H57zM58,10H59V11H58zM59,10H60V11H59zM60,10H61V11H60zM12,11H13V12H12zM13,11H14V12H13zM17,11H18V12H17zM20,11H21V12H20zM21,11H22V12H21zM23,11H24V12H23zM24,11H25V12H24zM25,11H26V12H25zM27,11H28V12H27zM28,11H29V12H28zM30,11H31V12H30zM34,11H35V12H34zM36,11H37V12H36zM40,11H41V12H40zM42,11H43V12H42zM44,11H45V12H44zM45,11H46V12H45zM47,11H48V12H47zM48,11H49V12H48zM49,11H50V12H49zM50,11H51V12H50zM6,12H7V13H6zM7,12H8V13H7zM10,12H11V13H10zM11,12H12V13H11zM12,12H13V13H12zM15,12H16V13H15zM18,12H19V13H18zM23,12H24V13H23zM25,12H26V13H25zM27,12H28V13H27zM30,12H31V13H30zM31,12H32V13H31zM32,12H33V13H32zM33,12H34V13H33zM34,12H35V13H34zM35,12H36V13H35zM38,12H39V13H38zM43,12H44V13H43zM44,12H45V13H44zM45,12H46V13H45zM47,12H48V13H47zM52,12H53V13H52zM53,12H54V13H53zM54,12H55V13H54zM56,12H57V13H56zM4,13H5V14H4zM5,13H6V14H5zM8,13H9V14H8zM9,13H10V14H9zM14,13H15V14H14zM16,13H17V14H16zM17,13H18V14H17zM18,13H19V14H18zM21,13H22V14H21zM22,13H23V14H22zM23,13H24V14H23zM24,13H25V14H24zM25,13H26V14H25zM30,13H31V14H30zM34,13H35V14H34zM35,13H36V14H35zM36,13H37V14H36zM38,13H39V14H38zM43,13H44V14H43zM45,13H46V14H45zM46,13H47V14H46zM47,13H48V14H47zM50,13H51V14H50zM51,13H52V14H51zM52,13H53V14H52zM53,13H54V14H53zM56,13H57V14H56zM57,13H58V14H57zM58,13H59V14H58zM59,13H60V14H59zM60,13H61V14H60zM5,14H6V15H5zM6,14H7V15H6zM7,14H8V15H7zM8,14H9V15H8zM10,14H11V15H10zM13,14H14V15H13zM15,14H16V15H15zM16,14H17V15H16zM18,14H19V15H18zM19,14H20V15H19zM21,14H22V15H21zM22,14H23V15H22zM24,14H25V15H24zM25,14H26V15H25zM26,14H27V15H26zM32,14H33V15H32zM34,14H35V15H34zM39,14H40V15H39zM41,14H42V15H41zM42,14H43V15H42zM44,14H45V15H44zM45,14H46V15H45zM46,14H47V15H46zM48,14H49V15H48zM52,14H53V15H52zM55,14H56V15H55zM58,14H59V15H58zM59,14H60V15H59zM60,14H61V15H60zM7,15H8V16H7zM9,15H10V16H9zM12,15H13V16H12zM15,15H16V16H15zM16,15H17V16H16zM18,15H19V16H18zM20,15H21V16H20zM21,15H22V16H21zM23,15H24V16H23zM25,15H26V16H25zM29,15H30V16H29zM30,15H31V16H30zM34,15H35V16H34zM36,15H37V16H36zM37,15H38V16H37zM39,15H40V16H39zM40,15H41V16H40zM41,15H42V16H41zM43,15H44V16H43zM44,15H45V16H44zM45,15H46V16H45zM48,15H49V16H48zM50,15H51V16H50zM51,15H52V16H51zM54,15H55V16H54zM55,15H56V16H55zM57,15H58V16H57zM4,16H5V17H4zM8,16H9V17H8zM9,16H10V17H9zM10,16H11V17H10zM12,16H13V17H12zM15,16H16V17H15zM19,16H20V17H19zM21,16H22V17H21zM23,16H24V17H23zM27,16H28V17H27zM28,16H29V17H28zM29,16H30V17H29zM31,16H32V17H31zM41,16H42V17H41zM42,16H43V17H42zM45,16H46V17H45zM46,16H47V17H46zM47,16H48V17H47zM50,16H51V17H50zM52,16H53V17H52zM53,16H54V17H53zM54,16H55V17H54zM58,16H59V17H58zM60,16H61V17H60zM6,17H7V18H6zM12,17H13V18H12zM14,17H15V18H14zM15,17H16V18H15zM16,17H17V18H16zM20,17H21V18H20zM21,17H22V18H21zM23,17H24V18H23zM27,17H28V18H27zM28,17H29V18H28zM31,17H32V18H31zM32,17H33V18H32zM33,17H34V18H33zM34,17H35V18H34zM35,17H36V18H35zM38,17H39V18H38zM39,17H40V18H39zM40,17H41V18H40zM42,17H43V18H42zM47,17H48V18H47zM53,17H54V18H53zM54,17H55V18H54zM57,17H58V18H57zM58,17H59V18H58zM5,18H6V19H5zM6,18H7V19H6zM8,18H9V19H8zM10,18H11V19H10zM11,18H12V19H11zM12,18H13V19H12zM14,18H15V19H14zM15,18H16V19H15zM18,18H19V19H18zM19,18H20V19H19zM20,18H21V19H20zM21,18H22V19H21zM22,18H23V19H22zM23,18H24V19H23zM25,18H26V19H25zM27,18H28V19H27zM28,18H29V19H28zM30,18H31V19H30zM31,18H32V19H31zM32,18H33V19H32zM33,18H34V19H33zM36,18H37V19H36zM39,18H40V19H39zM40,18H41V19H40zM41,18H42V19H41zM42,18H43V19H42zM43,18H44V19H43zM48,18H49V19H48zM49,18H50V19H49zM52,18H53V19H52zM53,18H54V19H53zM54,18H55V19H54zM55,18H56V19H55zM56,18H57V19H56zM57,18H58V19H57zM59,18H60V19H59zM4,19H5V20H4zM7,19H8V20H7zM9,19H10V20H9zM11,19H12V20H11zM13,19H14V20H13zM15,19H16V20H15zM19,19H20V20H19zM20,19H21V20H20zM22,19H23V20H22zM25,19H26V20H25zM26,19H27V20H26zM28,19H29V20H28zM29,19H30V20H29zM30,19H31V20H30zM31,19H32V20H31zM34,19H35V20H34zM35,19H36V20H35zM39,19H40V20H39zM40,19H41V20H40zM44,19H45V20H44zM50,19H51V20H50zM51,19H52V20H51zM53,19H54V20H53zM57,19H58V20H57zM58,19H59V20H58zM59,19H60V20H59zM60,19H61V20H60zM4,20H5V21H4zM5,20H6V21H5zM6,20H7V21H6zM8,20H9V21H8zM10,20H11V21H10zM12,20H13V21H12zM13,20H14V21H13zM15,20H16V21H15zM16,20H17V21H16zM19,20H20V21H19zM20,20H21V21H20zM22,20H23V21H22zM24,20H25V21H24zM26,20H27V21H26zM30,20H31V21H30zM31,20H32V21H31zM32,20H33V21H32zM34,20H35V21H34zM36,20H37V21H36zM37,20H38V21H37zM43,20H44V21H43zM45,20H46V21H45zM47,20H48V21H47zM48,20H49V21H48zM50,20H51V21H50zM53,20H54V21H53zM57,20H58V21H57zM58,20H59V21H58zM60,20H61V21H60zM5,21H6V22H5zM7,21H8V22H7zM12,21H13V22H12zM14,21H15V22H14zM15,21H16V22H15zM17,21H18V22H17zM18,21H19V22H18zM19,21H20V22H19zM20,21H21V22H20zM22,21H23V22H22zM29,21H30V22H29zM32,21H33V22H32zM33,21H34V22H33zM34,21H35V22H34zM37,21H38V22H37zM39,21H40V22H39zM43,21H44V22H43zM45,21H46V22H45zM49,21H50V22H49zM50,21H51V22H50zM51,21H52V22H51zM55,21H56V22H55zM56,21H57V22H56zM58,21H59V22H58zM59,21H60V22H59zM60,21H61V22H60zM5,22H6V23H5zM6,22H7V23H6zM10,22H11V23H10zM13,22H14V23H13zM14,22H15V23H14zM15,22H16V23H15zM19,22H20V23H19zM25,22H26V23H25zM26,22H27V23H26zM29,22H30V23H29zM30,22H31V23H30zM34,22H35V23H34zM35,22H36V23H35zM37,22H38V23H37zM38,22H39V23H38zM39,22H40V23H39zM40,22H41V23H40zM42,22H43V23H42zM44,22H45V23H44zM49,22H50V23H49zM50,22H51V23H50zM51,22H52V23H51zM53,22H54V23H53zM55,22H56V23H55zM58,22H59V23H58zM59,22H60V23H59zM4,23H5V24H4zM5,23H6V24H5zM6,23H7V24H6zM7,23H8V24H7zM11,23H12V24H11zM13,23H14V24H13zM15,23H16V24H15zM16,23H17V24H16zM19,23H20V24H19zM20,23H21V24H20zM25,23H26V24H25zM30,23H31V24H30zM32,23H33V24H32zM38,23H39V24H38zM39,23H40V24H39zM40,23H41V24H40zM42,23H43V24H42zM43,23H44V24H43zM44,23H45V24H44zM45,23H46V24H45zM54,23H55V24H54zM55,23H56V24H55zM56,23H57V24H56zM59,23H60V24H59zM5,24H6V25H5zM8,24H9V25H8zM9,24H10V25H9zM10,24H11V25H10zM14,24H15V25H14zM15,24H16V25H15zM16,24H17V25H16zM19,24H20V25H19zM22,24H23V25H22zM23,24H24V25H23zM24,24H25V25H24zM27,24H28V25H27zM28,24H29V25H28zM30,24H31V25H30zM32,24H33V25H32zM33,24H34V25H33zM34,24H35V25H34zM36,24H37V25H36zM37,24H38V25H37zM42,24H43V25H42zM43,24H44V25H43zM44,24H45V25H44zM46,24H47V25H46zM49,24H50V25H49zM50,24H51V25H50zM51,24H52V25H51zM52,24H53V25H52zM53,24H54V25H53zM55,24H56V25H55zM56,24H57V25H56zM4,25H5V26H4zM7,25H8V26H7zM8,25H9V26H8zM11,25H12V26H11zM12,25H13V26H12zM13,25H14V26H13zM14,25H15V26H14zM15,25H16V26H15zM16,25H17V26H16zM17,25H18V26H17zM19,25H20V26H19zM20,25H21V26H20zM22,25H23V26H22zM24,25H25V26H24zM26,25H27V26H26zM29,25H30V26H29zM32,25H33V26H32zM34,25H35V26H34zM35,25H36V26H35zM37,25H38V26H37zM38,25H39V26H38zM39,25H40V26H39zM40,25H41V26H40zM41,25H42V26H41zM44,25H45V26H44zM45,25H46V26H45zM46,25H47V26H46zM47,25H48V26H47zM48,25H49V26H48zM52,25H53V26H52zM53,25H54V26H53zM56,25H57V26H56zM58,25H59V26H58zM60,25H61V26H60zM6,26H7V27H6zM8,26H9V27H8zM10,26H11V27H10zM11,26H12V27H11zM14,26H15V27H14zM15,26H16V27H15zM16,26H17V27H16zM17,26H18V27H17zM19,26H20V27H19zM20,26H21V27H20zM22,26H23V27H22zM27,26H28V27H27zM34,26H35V27H34zM37,26H38V27H37zM39,26H40V27H39zM40,26H41V27H40zM45,26H46V27H45zM46,26H47V27H46zM47,26H48V27H47zM48,26H49V27H48zM52,26H53V27H52zM53,26H54V27H53zM54,26H55V27H54zM55,26H56V27H55zM56,26H57V27H56zM59,26H60V27H59zM60,26H61V27H60zM6,27H7V28H6zM8,27H9V28H8zM12,27H13V28H12zM14,27H15V28H14zM18,27H19V28H18zM20,27H21V28H20zM21,27H22V28H21zM22,27H23V28H22zM24,27H25V28H24zM27,27H28V28H27zM28,27H29V28H28zM29,27H30V28H29zM30,27H31V28H30zM33,27H34V28H33zM37,27H38V28H37zM41,27H42V28H41zM42,27H43V28H42zM44,27H45V28H44zM45,27H46V28H45zM46,27H47V28H46zM47,27H48V28H47zM48,27H49V28H48zM49,27H50V28H49zM50,27H51V28H50zM51,27H52V28H51zM52,27H53V28H52zM53,27H54V28H53zM55,27H56V28H55zM59,27H60V28H59zM10,28H11V29H10zM14,28H15V29H14zM15,28H16V29H15zM18,28H19V29H18zM23,28H24V29H23zM24,28H25V29H24zM26,28H27V29H26zM30,28H31V29H30zM35,28H36V29H35zM36,28H37V29H36zM39,28H40V29H39zM42,28H43V29H42zM44,28H45V29H44zM47,28H48V29H47zM49,28H50V29H49zM57,28H58V29H57zM58,28H59V29H58zM4,29H5V30H4zM5,29H6V30H5zM7,29H8V30H7zM8,29H9V30H8zM9,29H10V30H9zM12,29H13V30H12zM14,29H15V30H14zM17,29H18V30H17zM19,29H20V30H19zM20,29H21V30H20zM21,29H22V30H21zM22,29H23V30H22zM23,29H24V30H23zM24,29H25V30H24zM27,29H28V30H27zM28,29H29V30H28zM30,29H31V30H30zM32,29H33V30H32zM36,29H37V30H36zM37,29H38V30H37zM40,29H41V30H40zM42,29H43V30H42zM44,29H45V30H44zM46,29H47V30H46zM47,29H48V30H47zM48,29H49V30H48zM49,29H50V30H49zM51,29H52V30H51zM53,29H54V30H53zM54,29H55V30H54zM57,29H58V30H57zM60,29H61V30H60zM8,30H9V31H8zM9,30H10V31H9zM10,30H11V31H10zM11,30H12V31H11zM12,30H13V31H12zM14,30H15V31H14zM17,30H18V31H17zM21,30H22V31H21zM22,30H23V31H22zM24,30H25V31H24zM25,30H26V31H25zM26,30H27V31H26zM28,30H29V31H28zM30,30H31V31H30zM31,30H32V31H31zM32,30H33V31H32zM33,30H34V31H33zM34,30H35V31H34zM36,30H37V31H36zM42,30H43V31H42zM43,30H44V31H43zM48,30H49V31H48zM49,30H50V31H49zM51,30H52V31H51zM52,30H53V31H52zM53,30H54V31H53zM54,30H55V31H54zM55,30H56V31H55zM56,30H57V31H56zM57,30H58V31H57zM58,30H59V31H58zM60,30H61V31H60zM4,31H5V32H4zM7,31H8V32H7zM8,31H9V32H8zM12,31H13V32H12zM14,31H15V32H14zM16,31H17V32H16zM17,31H18V32H17zM22,31H23V32H22zM23,31H24V32H23zM25,31H26V32H25zM29,31H30V32H29zM30,31H31V32H30zM34,31H35V32H34zM36,31H37V32H36zM37,31H38V32H37zM38,31H39V32H38zM39,31H40V32H39zM42,31H43V32H42zM43,31H44V32H43zM45,31H46V32H45zM46,31H47V32H46zM49,31H50V32H49zM50,31H51V32H50zM52,31H53V32H52zM56,31H57V32H56zM57,31H58V32H57zM58,31H59V32H58zM60,31H61V32H60zM5,32H6V33H5zM7,32H8V33H7zM8,32H9V33H8zM10,32H11V33H10zM12,32H13V33H12zM20,32H21V33H20zM22,32H23V33H22zM23,32H24V33H23zM24,32H25V33H24zM29,32H30V33H29zM30,32H31V33H30zM32,32H33V33H32zM34,32H35V33H34zM36,32H37V33H36zM41,32H42V33H41zM42,32H43V33H42zM43,32H44V33H43zM44,32H45V33H44zM45,32H46V33H45zM47,32H48V33H47zM48,32H49V33H48zM49,32H50V33H49zM52,32H53V33H52zM54,32H55V33H54zM56,32H57V33H56zM57,32H58V33H57zM58,32H59V33H58zM59,32H60V33H59zM7,33H8V34H7zM8,33H9V34H8zM12,33H13V34H12zM14,33H15V34H14zM18,33H19V34H18zM19,33H20V34H19zM20,33H21V34H20zM21,33H22V34H21zM24,33H25V34H24zM26,33H27V34H26zM28,33H29V34H28zM29,33H30V34H29zM30,33H31V34H30zM34,33H35V34H34zM35,33H36V34H35zM37,33H38V34H37zM38,33H39V34H38zM40,33H41V34H40zM41,33H42V34H41zM45,33H46V34H45zM50,33H51V34H50zM52,33H53V34H52zM56,33H57V34H56zM57,33H58V34H57zM58,33H59V34H58zM59,33H60V34H59zM60,33H61V34H60zM5,34H6V35H5zM8,34H9V35H8zM9,34H10V35H9zM10,34H11V35H10zM11,34H12V35H11zM12,34H13V35H12zM13,34H14V35H13zM14,34H15V35H14zM15,34H16V35H15zM16,34H17V35H16zM17,34H18V35H17zM18,34H19V35H18zM19,34H20V35H19zM21,34H22V35H21zM22,34H23V35H22zM23,34H24V35H23zM24,34H25V35H24zM25,34H26V35H25zM26,34H27V35H26zM27,34H28V35H27zM28,34H29V35H28zM30,34H31V35H30zM31,34H32V35H31zM32,34H33V35H32zM33,34H34V35H33zM34,34H35V35H34zM36,34H37V35H36zM37,34H38V35H37zM39,34H40V35H39zM41,34H42V35H41zM42,34H43V35H42zM44,34H45V35H44zM50,34H51V35H50zM51,34H52V35H51zM52,34H53V35H52zM53,34H54V35H53zM54,34H55V35H54zM55,34H56V35H55zM56,34H57V35H56zM57,34H58V35H57zM59,34H60V35H59zM4,35H5V36H4zM7,35H8V36H7zM9,35H10V36H9zM11,35H12V36H11zM13,35H14V36H13zM14,35H15V36H14zM16,35H17V36H16zM18,35H19V36H18zM20,35H21V36H20zM21,35H22V36H21zM23,35H24V36H23zM25,35H26V36H25zM26,35H27V36H26zM33,35H34V36H33zM34,35H35V36H34zM36,35H37V36H36zM38,35H39V36H38zM40,35H41V36H40zM43,35H44V36H43zM46,35H47V36H46zM52,35H53V36H52zM53,35H54V36H53zM4,36H5V37H4zM6,36H7V37H6zM7,36H8V37H7zM8,36H9V37H8zM10,36H11V37H10zM11,36H12V37H11zM13,36H14V37H13zM14,36H15V37H14zM16,36H17V37H16zM18,36H19V37H18zM23,36H24V37H23zM24,36H25V37H24zM28,36H29V37H28zM32,36H33V37H32zM33,36H34V37H33zM36,36H37V37H36zM38,36H39V37H38zM40,36H41V37H40zM43,36H44V37H43zM44,36H45V37H44zM45,36H46V37H45zM46,36H47V37H46zM55,36H56V37H55zM56,36H57V37H56zM58,36H59V37H58zM59,36H60V37H59zM7,37H8V38H7zM11,37H12V38H11zM12,37H13V38H12zM13,37H14V38H13zM15,37H16V38H15zM16,37H17V38H16zM20,37H21V38H20zM24,37H25V38H24zM25,37H26V38H25zM27,37H28V38H27zM31,37H32V38H31zM33,37H34V38H33zM34,37H35V38H34zM40,37H41V38H40zM45,37H46V38H45zM46,37H47V38H46zM47,37H48V38H47zM48,37H49V38H48zM52,37H53V38H52zM54,37H55V38H54zM57,37H58V38H57zM59,37H60V38H59zM60,37H61V38H60zM6,38H7V39H6zM9,38H10V39H9zM10,38H11V39H10zM13,38H14V39H13zM16,38H17V39H16zM17,38H18V39H17zM19,38H20V39H19zM20,38H21V39H20zM22,38H23V39H22zM23,38H24V39H23zM24,38H25V39H24zM26,38H27V39H26zM27,38H28V39H27zM31,38H32V39H31zM32,38H33V39H32zM34,38H35V39H34zM36,38H37V39H36zM39,38H40V39H39zM41,38H42V39H41zM43,38H44V39H43zM45,38H46V39H45zM46,38H47V39H46zM47,38H48V39H47zM49,38H50V39H49zM51,38H52V39H51zM52,38H53V39H52zM53,38H54V39H53zM54,38H55V39H54zM55,38H56V39H55zM56,38H57V39H56zM58,38H59V39H58zM60,38H61V39H60zM6,39H7V40H6zM11,39H12V40H11zM14,39H15V40H14zM15,39H16V40H15zM16,39H17V40H16zM26,39H27V40H26zM29,39H30V40H29zM31,39H32V40H31zM32,39H33V40H32zM34,39H35V40H34zM35,39H36V40H35zM38,39H39V40H38zM40,39H41V40H40zM42,39H43V40H42zM44,39H45V40H44zM47,39H48V40H47zM48,39H49V40H48zM49,39H50V40H49zM50,39H51V40H50zM53,39H54V40H53zM54,39H55V40H54zM55,39H56V40H55zM57,39H58V40H57zM60,39H61V40H60zM4,40H5V41H4zM5,40H6V41H5zM6,40H7V41H6zM7,40H8V41H7zM8,40H9V41H8zM9,40H10V41H9zM10,40H11V41H10zM11,40H12V41H11zM12,40H13V41H12zM13,40H14V41H13zM14,40H15V41H14zM16,40H17V41H16zM17,40H18V41H17zM19,40H20V41H19zM26,40H27V41H26zM31,40H32V41H31zM35,40H36V41H35zM37,40H38V41H37zM38,40H39V41H38zM39,40H40V41H39zM42,40H43V41H42zM46,40H47V41H46zM50,40H51V41H50zM53,40H54V41H53zM54,40H55V41H54zM55,40H56V41H55zM59,40H60V41H59zM5,41H6V42H5zM6,41H7V42H6zM7,41H8V42H7zM11,41H12V42H11zM13,41H14V42H13zM15,41H16V42H15zM17,41H18V42H17zM20,41H21V42H20zM23,41H24V42H23zM24,41H25V42H24zM26,41H27V42H26zM28,41H29V42H28zM31,41H32V42H31zM32,41H33V42H32zM34,41H35V42H34zM35,41H36V42H35zM37,41H38V42H37zM39,41H40V42H39zM41,41H42V42H41zM43,41H44V42H43zM44,41H45V42H44zM47,41H48V42H47zM49,41H50V42H49zM51,41H52V42H51zM55,41H56V42H55zM57,41H58V42H57zM58,41H59V42H58zM59,41H60V42H59zM60,41H61V42H60zM6,42H7V43H6zM7,42H8V43H7zM10,42H11V43H10zM11,42H12V43H11zM15,42H16V43H15zM16,42H17V43H16zM17,42H18V43H17zM20,42H21V43H20zM22,42H23V43H22zM24,42H25V43H24zM25,42H26V43H25zM28,42H29V43H28zM29,42H30V43H29zM30,42H31V43H30zM33,42H34V43H33zM34,42H35V43H34zM36,42H37V43H36zM38,42H39V43H38zM40,42H41V43H40zM41,42H42V43H41zM43,42H44V43H43zM44,42H45V43H44zM45,42H46V43H45zM48,42H49V43H48zM54,42H55V43H54zM58,42H59V43H58zM6,43H7V44H6zM7,43H8V44H7zM8,43H9V44H8zM9,43H10V44H9zM11,43H12V44H11zM12,43H13V44H12zM15,43H16V44H15zM16,43H17V44H16zM18,43H19V44H18zM19,43H20V44H19zM21,43H22V44H21zM25,43H26V44H25zM27,43H28V44H27zM31,43H32V44H31zM32,43H33V44H32zM35,43H36V44H35zM36,43H37V44H36zM37,43H38V44H37zM39,43H40V44H39zM41,43H42V44H41zM42,43H43V44H42zM44,43H45V44H44zM46,43H47V44H46zM49,43H50V44H49zM51,43H52V44H51zM56,43H57V44H56zM57,43H58V44H57zM58,43H59V44H58zM59,43H60V44H59zM60,43H61V44H60zM5,44H6V45H5zM6,44H7V45H6zM7,44H8V45H7zM8,44H9V45H8zM10,44H11V45H10zM11,44H12V45H11zM12,44H13V45H12zM13,44H14V45H13zM16,44H17V45H16zM17,44H18V45H17zM19,44H20V45H19zM21,44H22V45H21zM22,44H23V45H22zM24,44H25V45H24zM28,44H29V45H28zM29,44H30V45H29zM31,44H32V45H31zM32,44H33V45H32zM34,44H35V45H34zM35,44H36V45H35zM36,44H37V45H36zM37,44H38V45H37zM39,44H40V45H39zM43,44H44V45H43zM46,44H47V45H46zM47,44H48V45H47zM49,44H50V45H49zM51,44H52V45H51zM52,44H53V45H52zM53,44H54V45H53zM54,44H55V45H54zM56,44H57V45H56zM57,44H58V45H57zM60,44H61V45H60zM4,45H5V46H4zM6,45H7V46H6zM8,45H9V46H8zM11,45H12V46H11zM15,45H16V46H15zM21,45H22V46H21zM22,45H23V46H22zM25,45H26V46H25zM30,45H31V46H30zM32,45H33V46H32zM34,45H35V46H34zM36,45H37V46H36zM37,45H38V46H37zM38,45H39V46H38zM42,45H43V46H42zM47,45H48V46H47zM48,45H49V46H48zM50,45H51V46H50zM53,45H54V46H53zM56,45H57V46H56zM57,45H58V46H57zM5,46H6V47H5zM6,46H7V47H6zM8,46H9V47H8zM10,46H11V47H10zM11,46H12V47H11zM12,46H13V47H12zM14,46H15V47H14zM16,46H17V47H16zM17,46H18V47H17zM20,46H21V47H20zM22,46H23V47H22zM25,46H26V47H25zM27,46H28V47H27zM28,46H29V47H28zM31,46H32V47H31zM33,46H34V47H33zM35,46H36V47H35zM39,46H40V47H39zM45,46H46V47H45zM47,46H48V47H47zM48,46H49V47H48zM51,46H52V47H51zM53,46H54V47H53zM55,46H56V47H55zM59,46H60V47H59zM5,47H6V48H5zM7,47H8V48H7zM12,47H13V48H12zM13,47H14V48H13zM15,47H16V48H15zM16,47H17V48H16zM18,47H19V48H18zM19,47H20V48H19zM21,47H22V48H21zM22,47H23V48H22zM23,47H24V48H23zM26,47H27V48H26zM27,47H28V48H27zM28,47H29V48H28zM31,47H32V48H31zM33,47H34V48H33zM34,47H35V48H34zM35,47H36V48H35zM38,47H39V48H38zM40,47H41V48H40zM42,47H43V48H42zM50,47H51V48H50zM51,47H52V48H51zM52,47H53V48H52zM53,47H54V48H53zM55,47H56V48H55zM4,48H5V49H4zM6,48H7V49H6zM8,48H9V49H8zM9,48H10V49H9zM10,48H11V49H10zM12,48H13V49H12zM17,48H18V49H17zM19,48H20V49H19zM21,48H22V49H21zM23,48H24V49H23zM24,48H25V49H24zM25,48H26V49H25zM30,48H31V49H30zM31,48H32V49H31zM35,48H36V49H35zM37,48H38V49H37zM38,48H39V49H38zM39,48H40V49H39zM40,48H41V49H40zM43,48H44V49H43zM44,48H45V49H44zM45,48H46V49H45zM52,48H53V49H52zM54,48H55V49H54zM58,48H59V49H58zM9,49H10V50H9zM13,49H14V50H13zM16,49H17V50H16zM19,49H20V50H19zM21,49H22V50H21zM22,49H23V50H22zM25,49H26V50H25zM26,49H27V50H26zM27,49H28V50H27zM30,49H31V50H30zM31,49H32V50H31zM38,49H39V50H38zM39,49H40V50H39zM40,49H41V50H40zM45,49H46V50H45zM46,49H47V50H46zM48,49H49V50H48zM49,49H50V50H49zM52,49H53V50H52zM57,49H58V50H57zM59,49H60V50H59zM60,49H61V50H60zM4,50H5V51H4zM6,50H7V51H6zM9,50H10V51H9zM10,50H11V51H10zM15,50H16V51H15zM16,50H17V51H16zM17,50H18V51H17zM18,50H19V51H18zM19,50H20V51H19zM22,50H23V51H22zM24,50H25V51H24zM25,50H26V51H25zM29,50H30V51H29zM30,50H31V51H30zM32,50H33V51H32zM34,50H35V51H34zM37,50H38V51H37zM38,50H39V51H38zM39,50H40V51H39zM40,50H41V51H40zM41,50H42V51H41zM42,50H43V51H42zM47,50H48V51H47zM48,50H49V51H48zM50,50H51V51H50zM53,50H54V51H53zM54,50H55V51H54zM55,50H56V51H55zM56,50H57V51H56zM58,50H59V51H58zM59,50H60V51H59zM60,50H61V51H60zM4,51H5V52H4zM5,51H6V52H5zM6,51H7V52H6zM7,51H8V52H7zM8,51H9V52H8zM11,51H12V52H11zM12,51H13V52H12zM15,51H16V52H15zM18,51H19V52H18zM22,51H23V52H22zM23,51H24V52H23zM25,51H26V52H25zM28,51H29V52H28zM30,51H31V52H30zM31,51H32V52H31zM32,51H33V52H32zM33,51H34V52H33zM34,51H35V52H34zM35,51H36V52H35zM37,51H38V52H37zM38,51H39V52H38zM39,51H40V52H39zM40,51H41V52H40zM41,51H42V52H41zM45,51H46V52H45zM48,51H49V52H48zM50,51H51V52H50zM51,51H52V52H51zM52,51H53V52H52zM53,51H54V52H53zM54,51H55V52H54zM55,51H56V52H55zM10,52H11V53H10zM11,52H12V53H11zM12,52H13V53H12zM13,52H14V53H13zM16,52H17V53H16zM17,52H18V53H17zM19,52H20V53H19zM21,52H22V53H21zM22,52H23V53H22zM23,52H24V53H23zM26,52H27V53H26zM28,52H29V53H28zM29,52H30V53H29zM30,52H31V53H30zM31,52H32V53H31zM32,52H33V53H32zM33,52H34V53H33zM34,52H35V53H34zM35,52H36V53H35zM36,52H37V53H36zM37,52H38V53H37zM38,52H39V53H38zM39,52H40V53H39zM40,52H41V53H40zM41,52H42V53H41zM50,52H51V53H50zM52,52H53V53H52zM53,52H54V53H53zM54,52H55V53H54zM55,52H56V53H55zM56,52H57V53H56zM57,52H58V53H57zM59,52H60V53H59zM60,52H61V53H60zM12,53H13V54H12zM14,53H15V54H14zM18,53H19V54H18zM23,53H24V54H23zM28,53H29V54H28zM30,53H31V54H30zM34,53H35V54H34zM35,53H36V54H35zM37,53H38V54H37zM38,53H39V54H38zM40,53H41V54H40zM42,53H43V54H42zM44,53H45V54H44zM47,53H48V54H47zM48,53H49V54H48zM49,53H50V54H49zM52,53H53V54H52zM56,53H57V54H56zM57,53H58V54H57zM4,54H5V55H4zM5,54H6V55H5zM6,54H7V55H6zM7,54H8V55H7zM8,54H9V55H8zM9,54H10V55H9zM10,54H11V55H10zM12,54H13V55H12zM14,54H15V55H14zM16,54H17V55H16zM19,54H20V55H19zM20,54H21V55H20zM21,54H22V55H21zM22,54H23V55H22zM23,54H24V55H23zM24,54H25V55H24zM25,54H26V55H25zM28,54H29V55H28zM29,54H30V55H29zM30,54H31V55H30zM32,54H33V55H32zM34,54H35V55H34zM36,54H37V55H36zM38,54H39V55H38zM40,54H41V55H40zM43,54H44V55H43zM44,54H45V55H44zM46,54H47V55H46zM47,54H48V55H47zM51,54H52V55H51zM52,54H53V55H52zM54,54H55V55H54zM56,54H57V55H56zM57,54H58V55H57zM4,55H5V56H4zM10,55H11V56H10zM15,55H16V56H15zM18,55H19V56H18zM19,55H20V56H19zM21,55H22V56H21zM24,55H25V56H24zM25,55H26V56H25zM26,55H27V56H26zM29,55H30V56H29zM30,55H31V56H30zM34,55H35V56H34zM35,55H36V56H35zM36,55H37V56H36zM39,55H40V56H39zM41,55H42V56H41zM42,55H43V56H42zM43,55H44V56H43zM44,55H45V56H44zM45,55H46V56H45zM48,55H49V56H48zM51,55H52V56H51zM52,55H53V56H52zM56,55H57V56H56zM58,55H59V56H58zM60,55H61V56H60zM4,56H5V57H4zM6,56H7V57H6zM7,56H8V57H7zM8,56H9V57H8zM10,56H11V57H10zM13,56H14V57H13zM15,56H16V57H15zM16,56H17V57H16zM19,56H20V57H19zM21,56H22V57H21zM22,56H23V57H22zM23,56H24V57H23zM24,56H25V57H24zM27,56H28V57H27zM29,56H30V57H29zM30,56H31V57H30zM31,56H32V57H31zM32,56H33V57H32zM33,56H34V57H33zM34,56H35V57H34zM35,56H36V57H35zM36,56H37V57H36zM38,56H39V57H38zM39,56H40V57H39zM41,56H42V57H41zM43,56H44V57H43zM47,56H48V57H47zM48,56H49V57H48zM50,56H51V57H50zM52,56H53V57H52zM53,56H54V57H53zM54,56H55V57H54zM55,56H56V57H55zM56,56H57V57H56zM57,56H58V57H57zM58,56H59V57H58zM59,56H60V57H59zM4,57H5V58H4zM6,57H7V58H6zM7,57H8V58H7zM8,57H9V58H8zM10,57H11V58H10zM12,57H13V58H12zM16,57H17V58H16zM17,57H18V58H17zM18,57H19V58H18zM19,57H20V58H19zM21,57H22V58H21zM22,57H23V58H22zM26,57H27V58H26zM28,57H29V58H28zM29,57H30V58H29zM30,57H31V58H30zM31,57H32V58H31zM33,57H34V58H33zM36,57H37V58H36zM40,57H41V58H40zM42,57H43V58H42zM43,57H44V58H43zM47,57H48V58H47zM48,57H49V58H48zM49,57H50V58H49zM50,57H51V58H50zM51,57H52V58H51zM55,57H56V58H55zM57,57H58V58H57zM58,57H59V58H58zM59,57H60V58H59zM4,58H5V59H4zM6,58H7V59H6zM7,58H8V59H7zM8,58H9V59H8zM10,58H11V59H10zM12,58H13V59H12zM13,58H14V59H13zM15,58H16V59H15zM17,58H18V59H17zM19,58H20V59H19zM23,58H24V59H23zM24,58H25V59H24zM25,58H26V59H25zM26,58H27V59H26zM31,58H32V59H31zM33,58H34V59H33zM34,58H35V59H34zM35,58H36V59H35zM36,58H37V59H36zM38,58H39V59H38zM40,58H41V59H40zM42,58H43V59H42zM44,58H45V59H44zM46,58H47V59H46zM47,58H48V59H47zM49,58H50V59H49zM51,58H52V59H51zM52,58H53V59H52zM53,58H54V59H53zM4,59H5V60H4zM10,59H11V60H10zM13,59H14V60H13zM14,59H15V60H14zM17,59H18V60H17zM22,59H23V60H22zM23,59H24V60H23zM25,59H26V60H25zM27,59H28V60H27zM29,59H30V60H29zM32,59H33V60H32zM33,59H34V60H33zM34,59H35V60H34zM35,59H36V60H35zM37,59H38V60H37zM38,59H39V60H38zM40,59H41V60H40zM42,59H43V60H42zM43,59H44V60H43zM45,59H46V60H45zM49,59H50V60H49zM51,59H52V60H51zM54,59H55V60H54zM58,59H59V60H58zM60,59H61V60H60zM4,60H5V61H4zM5,60H6V61H5zM6,60H7V61H6zM7,60H8V61H7zM8,60H9V61H8zM9,60H10V61H9zM10,60H11V61H10zM13,60H14V61H13zM16,60H17V61H16zM20,60H21V61H20zM21,60H22V61H21zM24,60H25V61H24zM25,60H26V61H25zM30,60H31V61H30zM31,60H32V61H31zM32,60H33V61H32zM34,60H35V61H34zM37,60H38V61H37zM38,60H39V61H38zM41,60H42V61H41zM42,60H43V61H42zM44,60H45V61H44zM45,60H46V61H45zM49,60H50V61H49zM51,60H52V61H51zM53,60H54V61H53zM54,60H55V61H54z" id="qr-path" fill="#000000" fill-opacity="1" fill-rule="nonzero" stroke="none" /></svg>